<mxfile host="app.diagrams.net" modified="2020-11-11T06:26:27.105Z" agent="5.0 (Windows NT 10.0; Win64; x64) AppleWebKit/537.36 (KHTML, like Gecko) Chrome/86.0.4240.183 Safari/537.36" etag="3Azkd-1SaBh4-t2FywuL" version="13.9.3" type="github">
  <diagram id="SHWc6_Efl7fnr4XrcgVO" name="Page-1">
    <mxGraphModel dx="1221" dy="578" grid="1" gridSize="10" guides="1" tooltips="1" connect="1" arrows="1" fold="1" page="1" pageScale="1" pageWidth="827" pageHeight="1169" math="0" shadow="0">
      <root>
        <mxCell id="0" />
        <mxCell id="1" parent="0" />
        <mxCell id="mX_RafrJ3beVsuIxFCsf-1" value="COMPANY&#xa;" style="swimlane;fontStyle=2;align=center;verticalAlign=top;childLayout=stackLayout;horizontal=1;startSize=26;horizontalStack=0;resizeParent=1;resizeLast=0;collapsible=1;marginBottom=0;rounded=0;shadow=0;strokeWidth=1;" parent="1" vertex="1">
          <mxGeometry x="20" y="172" width="160" height="294" as="geometry">
            <mxRectangle x="230" y="140" width="160" height="26" as="alternateBounds" />
          </mxGeometry>
        </mxCell>
        <mxCell id="mX_RafrJ3beVsuIxFCsf-2" value="- company_id" style="text;align=left;verticalAlign=top;spacingLeft=4;spacingRight=4;overflow=hidden;rotatable=0;points=[[0,0.5],[1,0.5]];portConstraint=eastwest;" parent="mX_RafrJ3beVsuIxFCsf-1" vertex="1">
          <mxGeometry y="26" width="160" height="26" as="geometry" />
        </mxCell>
        <mxCell id="mX_RafrJ3beVsuIxFCsf-3" value="- company_name" style="text;align=left;verticalAlign=top;spacingLeft=4;spacingRight=4;overflow=hidden;rotatable=0;points=[[0,0.5],[1,0.5]];portConstraint=eastwest;" parent="mX_RafrJ3beVsuIxFCsf-1" vertex="1">
          <mxGeometry y="52" width="160" height="26" as="geometry" />
        </mxCell>
        <mxCell id="mX_RafrJ3beVsuIxFCsf-4" value="- address" style="text;align=left;verticalAlign=top;spacingLeft=4;spacingRight=4;overflow=hidden;rotatable=0;points=[[0,0.5],[1,0.5]];portConstraint=eastwest;" parent="mX_RafrJ3beVsuIxFCsf-1" vertex="1">
          <mxGeometry y="78" width="160" height="26" as="geometry" />
        </mxCell>
        <mxCell id="mX_RafrJ3beVsuIxFCsf-5" value="- city" style="text;align=left;verticalAlign=top;spacingLeft=4;spacingRight=4;overflow=hidden;rotatable=0;points=[[0,0.5],[1,0.5]];portConstraint=eastwest;" parent="mX_RafrJ3beVsuIxFCsf-1" vertex="1">
          <mxGeometry y="104" width="160" height="26" as="geometry" />
        </mxCell>
        <mxCell id="mX_RafrJ3beVsuIxFCsf-6" value="- company_phone" style="text;align=left;verticalAlign=top;spacingLeft=4;spacingRight=4;overflow=hidden;rotatable=0;points=[[0,0.5],[1,0.5]];portConstraint=eastwest;rounded=0;shadow=0;html=0;" parent="mX_RafrJ3beVsuIxFCsf-1" vertex="1">
          <mxGeometry y="130" width="160" height="26" as="geometry" />
        </mxCell>
        <mxCell id="mX_RafrJ3beVsuIxFCsf-7" value="- company_fax" style="text;align=left;verticalAlign=top;spacingLeft=4;spacingRight=4;overflow=hidden;rotatable=0;points=[[0,0.5],[1,0.5]];portConstraint=eastwest;rounded=0;shadow=0;html=0;" parent="mX_RafrJ3beVsuIxFCsf-1" vertex="1">
          <mxGeometry y="156" width="160" height="26" as="geometry" />
        </mxCell>
        <mxCell id="mX_RafrJ3beVsuIxFCsf-8" value="- tax_no" style="text;align=left;verticalAlign=top;spacingLeft=4;spacingRight=4;overflow=hidden;rotatable=0;points=[[0,0.5],[1,0.5]];portConstraint=eastwest;rounded=0;shadow=0;html=0;" parent="mX_RafrJ3beVsuIxFCsf-1" vertex="1">
          <mxGeometry y="182" width="160" height="26" as="geometry" />
        </mxCell>
        <mxCell id="mX_RafrJ3beVsuIxFCsf-9" value="- country_id" style="text;align=left;verticalAlign=top;spacingLeft=4;spacingRight=4;overflow=hidden;rotatable=0;points=[[0,0.5],[1,0.5]];portConstraint=eastwest;rounded=0;shadow=0;html=0;" parent="mX_RafrJ3beVsuIxFCsf-1" vertex="1">
          <mxGeometry y="208" width="160" height="26" as="geometry" />
        </mxCell>
        <mxCell id="mX_RafrJ3beVsuIxFCsf-10" value="- status" style="text;align=left;verticalAlign=top;spacingLeft=4;spacingRight=4;overflow=hidden;rotatable=0;points=[[0,0.5],[1,0.5]];portConstraint=eastwest;rounded=0;shadow=0;html=0;" parent="mX_RafrJ3beVsuIxFCsf-1" vertex="1">
          <mxGeometry y="234" width="160" height="26" as="geometry" />
        </mxCell>
        <mxCell id="mX_RafrJ3beVsuIxFCsf-11" value="" style="line;html=1;strokeWidth=1;align=left;verticalAlign=middle;spacingTop=-1;spacingLeft=3;spacingRight=3;rotatable=0;labelPosition=right;points=[];portConstraint=eastwest;" parent="mX_RafrJ3beVsuIxFCsf-1" vertex="1">
          <mxGeometry y="260" width="160" height="8" as="geometry" />
        </mxCell>
        <mxCell id="mX_RafrJ3beVsuIxFCsf-12" value="- - - " style="text;align=left;verticalAlign=top;spacingLeft=4;spacingRight=4;overflow=hidden;rotatable=0;points=[[0,0.5],[1,0.5]];portConstraint=eastwest;" parent="mX_RafrJ3beVsuIxFCsf-1" vertex="1">
          <mxGeometry y="268" width="160" height="26" as="geometry" />
        </mxCell>
        <mxCell id="mX_RafrJ3beVsuIxFCsf-13" value="CUSTOMER&#xa;" style="swimlane;fontStyle=0;align=center;verticalAlign=top;childLayout=stackLayout;horizontal=1;startSize=26;horizontalStack=0;resizeParent=1;resizeLast=0;collapsible=1;marginBottom=0;rounded=0;shadow=0;strokeWidth=1;" parent="1" vertex="1">
          <mxGeometry x="360" y="130" width="160" height="424" as="geometry">
            <mxRectangle x="550" y="140" width="160" height="26" as="alternateBounds" />
          </mxGeometry>
        </mxCell>
        <mxCell id="mX_RafrJ3beVsuIxFCsf-14" value="- customer_id" style="text;align=left;verticalAlign=top;spacingLeft=4;spacingRight=4;overflow=hidden;rotatable=0;points=[[0,0.5],[1,0.5]];portConstraint=eastwest;" parent="mX_RafrJ3beVsuIxFCsf-13" vertex="1">
          <mxGeometry y="26" width="160" height="26" as="geometry" />
        </mxCell>
        <mxCell id="mX_RafrJ3beVsuIxFCsf-15" value="- business_phone" style="text;align=left;verticalAlign=top;spacingLeft=4;spacingRight=4;overflow=hidden;rotatable=0;points=[[0,0.5],[1,0.5]];portConstraint=eastwest;" parent="mX_RafrJ3beVsuIxFCsf-13" vertex="1">
          <mxGeometry y="52" width="160" height="26" as="geometry" />
        </mxCell>
        <mxCell id="mX_RafrJ3beVsuIxFCsf-16" value="- city" style="text;align=left;verticalAlign=top;spacingLeft=4;spacingRight=4;overflow=hidden;rotatable=0;points=[[0,0.5],[1,0.5]];portConstraint=eastwest;" parent="mX_RafrJ3beVsuIxFCsf-13" vertex="1">
          <mxGeometry y="78" width="160" height="26" as="geometry" />
        </mxCell>
        <mxCell id="mX_RafrJ3beVsuIxFCsf-17" value="- created_date" style="text;align=left;verticalAlign=top;spacingLeft=4;spacingRight=4;overflow=hidden;rotatable=0;points=[[0,0.5],[1,0.5]];portConstraint=eastwest;" parent="mX_RafrJ3beVsuIxFCsf-13" vertex="1">
          <mxGeometry y="104" width="160" height="26" as="geometry" />
        </mxCell>
        <mxCell id="mX_RafrJ3beVsuIxFCsf-18" value="- customer_fax" style="text;align=left;verticalAlign=top;spacingLeft=4;spacingRight=4;overflow=hidden;rotatable=0;points=[[0,0.5],[1,0.5]];portConstraint=eastwest;" parent="mX_RafrJ3beVsuIxFCsf-13" vertex="1">
          <mxGeometry y="130" width="160" height="26" as="geometry" />
        </mxCell>
        <mxCell id="mX_RafrJ3beVsuIxFCsf-19" value="- eposta" style="text;align=left;verticalAlign=top;spacingLeft=4;spacingRight=4;overflow=hidden;rotatable=0;points=[[0,0.5],[1,0.5]];portConstraint=eastwest;rounded=0;shadow=0;html=0;" parent="mX_RafrJ3beVsuIxFCsf-13" vertex="1">
          <mxGeometry y="156" width="160" height="26" as="geometry" />
        </mxCell>
        <mxCell id="mX_RafrJ3beVsuIxFCsf-20" value="- job_title" style="text;align=left;verticalAlign=top;spacingLeft=4;spacingRight=4;overflow=hidden;rotatable=0;points=[[0,0.5],[1,0.5]];portConstraint=eastwest;rounded=0;shadow=0;html=0;" parent="mX_RafrJ3beVsuIxFCsf-13" vertex="1">
          <mxGeometry y="182" width="160" height="26" as="geometry" />
        </mxCell>
        <mxCell id="mX_RafrJ3beVsuIxFCsf-21" value="- mobile_phone&#xa;" style="text;align=left;verticalAlign=top;spacingLeft=4;spacingRight=4;overflow=hidden;rotatable=0;points=[[0,0.5],[1,0.5]];portConstraint=eastwest;rounded=0;shadow=0;html=0;" parent="mX_RafrJ3beVsuIxFCsf-13" vertex="1">
          <mxGeometry y="208" width="160" height="26" as="geometry" />
        </mxCell>
        <mxCell id="mX_RafrJ3beVsuIxFCsf-22" value="- name" style="text;align=left;verticalAlign=top;spacingLeft=4;spacingRight=4;overflow=hidden;rotatable=0;points=[[0,0.5],[1,0.5]];portConstraint=eastwest;rounded=0;shadow=0;html=0;" parent="mX_RafrJ3beVsuIxFCsf-13" vertex="1">
          <mxGeometry y="234" width="160" height="26" as="geometry" />
        </mxCell>
        <mxCell id="mX_RafrJ3beVsuIxFCsf-23" value="- surname" style="text;align=left;verticalAlign=top;spacingLeft=4;spacingRight=4;overflow=hidden;rotatable=0;points=[[0,0.5],[1,0.5]];portConstraint=eastwest;rounded=0;shadow=0;html=0;" parent="mX_RafrJ3beVsuIxFCsf-13" vertex="1">
          <mxGeometry y="260" width="160" height="26" as="geometry" />
        </mxCell>
        <mxCell id="mX_RafrJ3beVsuIxFCsf-24" value="- company_id" style="text;align=left;verticalAlign=top;spacingLeft=4;spacingRight=4;overflow=hidden;rotatable=0;points=[[0,0.5],[1,0.5]];portConstraint=eastwest;rounded=0;shadow=0;html=0;" parent="mX_RafrJ3beVsuIxFCsf-13" vertex="1">
          <mxGeometry y="286" width="160" height="26" as="geometry" />
        </mxCell>
        <mxCell id="mX_RafrJ3beVsuIxFCsf-25" value="- country_id" style="text;align=left;verticalAlign=top;spacingLeft=4;spacingRight=4;overflow=hidden;rotatable=0;points=[[0,0.5],[1,0.5]];portConstraint=eastwest;rounded=0;shadow=0;html=0;" parent="mX_RafrJ3beVsuIxFCsf-13" vertex="1">
          <mxGeometry y="312" width="160" height="26" as="geometry" />
        </mxCell>
        <mxCell id="mX_RafrJ3beVsuIxFCsf-26" value="- user_id" style="text;align=left;verticalAlign=top;spacingLeft=4;spacingRight=4;overflow=hidden;rotatable=0;points=[[0,0.5],[1,0.5]];portConstraint=eastwest;rounded=0;shadow=0;html=0;" parent="mX_RafrJ3beVsuIxFCsf-13" vertex="1">
          <mxGeometry y="338" width="160" height="26" as="geometry" />
        </mxCell>
        <mxCell id="mX_RafrJ3beVsuIxFCsf-27" value="- status" style="text;align=left;verticalAlign=top;spacingLeft=4;spacingRight=4;overflow=hidden;rotatable=0;points=[[0,0.5],[1,0.5]];portConstraint=eastwest;rounded=0;shadow=0;html=0;" parent="mX_RafrJ3beVsuIxFCsf-13" vertex="1">
          <mxGeometry y="364" width="160" height="26" as="geometry" />
        </mxCell>
        <mxCell id="mX_RafrJ3beVsuIxFCsf-28" value="" style="line;html=1;strokeWidth=1;align=left;verticalAlign=middle;spacingTop=-1;spacingLeft=3;spacingRight=3;rotatable=0;labelPosition=right;points=[];portConstraint=eastwest;" parent="mX_RafrJ3beVsuIxFCsf-13" vertex="1">
          <mxGeometry y="390" width="160" height="8" as="geometry" />
        </mxCell>
        <mxCell id="mX_RafrJ3beVsuIxFCsf-29" value="- - - " style="text;align=left;verticalAlign=top;spacingLeft=4;spacingRight=4;overflow=hidden;rotatable=0;points=[[0,0.5],[1,0.5]];portConstraint=eastwest;" parent="mX_RafrJ3beVsuIxFCsf-13" vertex="1">
          <mxGeometry y="398" width="160" height="26" as="geometry" />
        </mxCell>
        <mxCell id="mX_RafrJ3beVsuIxFCsf-30" value="" style="endArrow=open;shadow=0;strokeWidth=1;rounded=0;endFill=1;edgeStyle=elbowEdgeStyle;elbow=vertical;entryX=0;entryY=0.5;entryDx=0;entryDy=0;" parent="1" source="mX_RafrJ3beVsuIxFCsf-1" target="mX_RafrJ3beVsuIxFCsf-24" edge="1">
          <mxGeometry x="0.5" y="41" relative="1" as="geometry">
            <mxPoint x="380" y="192" as="sourcePoint" />
            <mxPoint x="290" y="450" as="targetPoint" />
            <mxPoint x="-40" y="32" as="offset" />
            <Array as="points">
              <mxPoint x="330" y="450" />
              <mxPoint x="290" y="450" />
              <mxPoint x="270" y="471" />
              <mxPoint x="240" y="490" />
            </Array>
          </mxGeometry>
        </mxCell>
        <mxCell id="mX_RafrJ3beVsuIxFCsf-31" value="0..1" style="resizable=0;align=left;verticalAlign=bottom;labelBackgroundColor=none;fontSize=12;" parent="mX_RafrJ3beVsuIxFCsf-30" connectable="0" vertex="1">
          <mxGeometry x="-1" relative="1" as="geometry">
            <mxPoint y="42.28" as="offset" />
          </mxGeometry>
        </mxCell>
        <mxCell id="mX_RafrJ3beVsuIxFCsf-32" value="0..*" style="resizable=0;align=right;verticalAlign=bottom;labelBackgroundColor=none;fontSize=12;" parent="mX_RafrJ3beVsuIxFCsf-30" connectable="0" vertex="1">
          <mxGeometry x="1" relative="1" as="geometry">
            <mxPoint x="-17.93" y="-15.719999999999999" as="offset" />
          </mxGeometry>
        </mxCell>
        <mxCell id="mX_RafrJ3beVsuIxFCsf-33" value="CUSTOMER_ORDER" style="swimlane;fontStyle=0;align=center;verticalAlign=top;childLayout=stackLayout;horizontal=1;startSize=26;horizontalStack=0;resizeParent=1;resizeLast=0;collapsible=1;marginBottom=0;rounded=0;shadow=0;strokeWidth=1;" parent="1" vertex="1">
          <mxGeometry x="630" y="112" width="160" height="528" as="geometry">
            <mxRectangle x="550" y="140" width="160" height="26" as="alternateBounds" />
          </mxGeometry>
        </mxCell>
        <mxCell id="mX_RafrJ3beVsuIxFCsf-34" value="- customer_order_id" style="text;align=left;verticalAlign=top;spacingLeft=4;spacingRight=4;overflow=hidden;rotatable=0;points=[[0,0.5],[1,0.5]];portConstraint=eastwest;" parent="mX_RafrJ3beVsuIxFCsf-33" vertex="1">
          <mxGeometry y="26" width="160" height="26" as="geometry" />
        </mxCell>
        <mxCell id="mX_RafrJ3beVsuIxFCsf-35" value="- charged_fee" style="text;align=left;verticalAlign=top;spacingLeft=4;spacingRight=4;overflow=hidden;rotatable=0;points=[[0,0.5],[1,0.5]];portConstraint=eastwest;" parent="mX_RafrJ3beVsuIxFCsf-33" vertex="1">
          <mxGeometry y="52" width="160" height="26" as="geometry" />
        </mxCell>
        <mxCell id="mX_RafrJ3beVsuIxFCsf-36" value="- incomplete_fee" style="text;align=left;verticalAlign=top;spacingLeft=4;spacingRight=4;overflow=hidden;rotatable=0;points=[[0,0.5],[1,0.5]];portConstraint=eastwest;" parent="mX_RafrJ3beVsuIxFCsf-33" vertex="1">
          <mxGeometry y="78" width="160" height="26" as="geometry" />
        </mxCell>
        <mxCell id="mX_RafrJ3beVsuIxFCsf-37" value="- shipment_name" style="text;align=left;verticalAlign=top;spacingLeft=4;spacingRight=4;overflow=hidden;rotatable=0;points=[[0,0.5],[1,0.5]];portConstraint=eastwest;" parent="mX_RafrJ3beVsuIxFCsf-33" vertex="1">
          <mxGeometry y="104" width="160" height="26" as="geometry" />
        </mxCell>
        <mxCell id="mX_RafrJ3beVsuIxFCsf-38" value="- shipment_address" style="text;align=left;verticalAlign=top;spacingLeft=4;spacingRight=4;overflow=hidden;rotatable=0;points=[[0,0.5],[1,0.5]];portConstraint=eastwest;" parent="mX_RafrJ3beVsuIxFCsf-33" vertex="1">
          <mxGeometry y="130" width="160" height="26" as="geometry" />
        </mxCell>
        <mxCell id="mX_RafrJ3beVsuIxFCsf-39" value="- shipment_phone" style="text;align=left;verticalAlign=top;spacingLeft=4;spacingRight=4;overflow=hidden;rotatable=0;points=[[0,0.5],[1,0.5]];portConstraint=eastwest;rounded=0;shadow=0;html=0;" parent="mX_RafrJ3beVsuIxFCsf-33" vertex="1">
          <mxGeometry y="156" width="160" height="26" as="geometry" />
        </mxCell>
        <mxCell id="mX_RafrJ3beVsuIxFCsf-40" value="- shipment_fee" style="text;align=left;verticalAlign=top;spacingLeft=4;spacingRight=4;overflow=hidden;rotatable=0;points=[[0,0.5],[1,0.5]];portConstraint=eastwest;rounded=0;shadow=0;html=0;" parent="mX_RafrJ3beVsuIxFCsf-33" vertex="1">
          <mxGeometry y="182" width="160" height="26" as="geometry" />
        </mxCell>
        <mxCell id="mX_RafrJ3beVsuIxFCsf-41" value="- shipment_date" style="text;align=left;verticalAlign=top;spacingLeft=4;spacingRight=4;overflow=hidden;rotatable=0;points=[[0,0.5],[1,0.5]];portConstraint=eastwest;rounded=0;shadow=0;html=0;" parent="mX_RafrJ3beVsuIxFCsf-33" vertex="1">
          <mxGeometry y="208" width="160" height="26" as="geometry" />
        </mxCell>
        <mxCell id="mX_RafrJ3beVsuIxFCsf-42" value="- order_quantity" style="text;align=left;verticalAlign=top;spacingLeft=4;spacingRight=4;overflow=hidden;rotatable=0;points=[[0,0.5],[1,0.5]];portConstraint=eastwest;rounded=0;shadow=0;html=0;" parent="mX_RafrJ3beVsuIxFCsf-33" vertex="1">
          <mxGeometry y="234" width="160" height="26" as="geometry" />
        </mxCell>
        <mxCell id="mX_RafrJ3beVsuIxFCsf-43" value="- order_address" style="text;align=left;verticalAlign=top;spacingLeft=4;spacingRight=4;overflow=hidden;rotatable=0;points=[[0,0.5],[1,0.5]];portConstraint=eastwest;rounded=0;shadow=0;html=0;" parent="mX_RafrJ3beVsuIxFCsf-33" vertex="1">
          <mxGeometry y="260" width="160" height="26" as="geometry" />
        </mxCell>
        <mxCell id="mX_RafrJ3beVsuIxFCsf-44" value="- order_postal_code" style="text;align=left;verticalAlign=top;spacingLeft=4;spacingRight=4;overflow=hidden;rotatable=0;points=[[0,0.5],[1,0.5]];portConstraint=eastwest;rounded=0;shadow=0;html=0;" parent="mX_RafrJ3beVsuIxFCsf-33" vertex="1">
          <mxGeometry y="286" width="160" height="26" as="geometry" />
        </mxCell>
        <mxCell id="mX_RafrJ3beVsuIxFCsf-45" value="- order_date" style="text;align=left;verticalAlign=top;spacingLeft=4;spacingRight=4;overflow=hidden;rotatable=0;points=[[0,0.5],[1,0.5]];portConstraint=eastwest;rounded=0;shadow=0;html=0;" parent="mX_RafrJ3beVsuIxFCsf-33" vertex="1">
          <mxGeometry y="312" width="160" height="26" as="geometry" />
        </mxCell>
        <mxCell id="mX_RafrJ3beVsuIxFCsf-46" value="- order_fee" style="text;align=left;verticalAlign=top;spacingLeft=4;spacingRight=4;overflow=hidden;rotatable=0;points=[[0,0.5],[1,0.5]];portConstraint=eastwest;rounded=0;shadow=0;html=0;" parent="mX_RafrJ3beVsuIxFCsf-33" vertex="1">
          <mxGeometry y="338" width="160" height="26" as="geometry" />
        </mxCell>
        <mxCell id="mX_RafrJ3beVsuIxFCsf-47" value="- tax" style="text;align=left;verticalAlign=top;spacingLeft=4;spacingRight=4;overflow=hidden;rotatable=0;points=[[0,0.5],[1,0.5]];portConstraint=eastwest;rounded=0;shadow=0;html=0;" parent="mX_RafrJ3beVsuIxFCsf-33" vertex="1">
          <mxGeometry y="364" width="160" height="26" as="geometry" />
        </mxCell>
        <mxCell id="mX_RafrJ3beVsuIxFCsf-48" value="- customer_id" style="text;align=left;verticalAlign=top;spacingLeft=4;spacingRight=4;overflow=hidden;rotatable=0;points=[[0,0.5],[1,0.5]];portConstraint=eastwest;rounded=0;shadow=0;html=0;" parent="mX_RafrJ3beVsuIxFCsf-33" vertex="1">
          <mxGeometry y="390" width="160" height="26" as="geometry" />
        </mxCell>
        <mxCell id="mX_RafrJ3beVsuIxFCsf-49" value="- user_id" style="text;align=left;verticalAlign=top;spacingLeft=4;spacingRight=4;overflow=hidden;rotatable=0;points=[[0,0.5],[1,0.5]];portConstraint=eastwest;rounded=0;shadow=0;html=0;" parent="mX_RafrJ3beVsuIxFCsf-33" vertex="1">
          <mxGeometry y="416" width="160" height="26" as="geometry" />
        </mxCell>
        <mxCell id="mX_RafrJ3beVsuIxFCsf-50" value="- order_status_id" style="text;align=left;verticalAlign=top;spacingLeft=4;spacingRight=4;overflow=hidden;rotatable=0;points=[[0,0.5],[1,0.5]];portConstraint=eastwest;rounded=0;shadow=0;html=0;" parent="mX_RafrJ3beVsuIxFCsf-33" vertex="1">
          <mxGeometry y="442" width="160" height="26" as="geometry" />
        </mxCell>
        <mxCell id="mX_RafrJ3beVsuIxFCsf-51" value="- status" style="text;align=left;verticalAlign=top;spacingLeft=4;spacingRight=4;overflow=hidden;rotatable=0;points=[[0,0.5],[1,0.5]];portConstraint=eastwest;rounded=0;shadow=0;html=0;" parent="mX_RafrJ3beVsuIxFCsf-33" vertex="1">
          <mxGeometry y="468" width="160" height="26" as="geometry" />
        </mxCell>
        <mxCell id="mX_RafrJ3beVsuIxFCsf-52" value="" style="line;html=1;strokeWidth=1;align=left;verticalAlign=middle;spacingTop=-1;spacingLeft=3;spacingRight=3;rotatable=0;labelPosition=right;points=[];portConstraint=eastwest;" parent="mX_RafrJ3beVsuIxFCsf-33" vertex="1">
          <mxGeometry y="494" width="160" height="8" as="geometry" />
        </mxCell>
        <mxCell id="mX_RafrJ3beVsuIxFCsf-53" value="- - -" style="text;align=left;verticalAlign=top;spacingLeft=4;spacingRight=4;overflow=hidden;rotatable=0;points=[[0,0.5],[1,0.5]];portConstraint=eastwest;" parent="mX_RafrJ3beVsuIxFCsf-33" vertex="1">
          <mxGeometry y="502" width="160" height="26" as="geometry" />
        </mxCell>
        <mxCell id="mX_RafrJ3beVsuIxFCsf-54" value="" style="endArrow=classic;html=1;entryX=0;entryY=0.5;entryDx=0;entryDy=0;exitX=1;exitY=0.5;exitDx=0;exitDy=0;" parent="1" source="mX_RafrJ3beVsuIxFCsf-21" target="mX_RafrJ3beVsuIxFCsf-41" edge="1">
          <mxGeometry width="50" height="50" relative="1" as="geometry">
            <mxPoint x="400" y="380" as="sourcePoint" />
            <mxPoint x="450" y="330" as="targetPoint" />
          </mxGeometry>
        </mxCell>
        <mxCell id="mX_RafrJ3beVsuIxFCsf-55" value="1..*" style="edgeLabel;html=1;align=center;verticalAlign=middle;resizable=0;points=[];" parent="mX_RafrJ3beVsuIxFCsf-54" vertex="1" connectable="0">
          <mxGeometry x="0.8071" relative="1" as="geometry">
            <mxPoint x="-4.76" y="-13" as="offset" />
          </mxGeometry>
        </mxCell>
        <mxCell id="mX_RafrJ3beVsuIxFCsf-56" value="1" style="edgeLabel;html=1;align=center;verticalAlign=middle;resizable=0;points=[];" parent="mX_RafrJ3beVsuIxFCsf-54" vertex="1" connectable="0">
          <mxGeometry x="-0.8893" relative="1" as="geometry">
            <mxPoint x="5" y="-15" as="offset" />
          </mxGeometry>
        </mxCell>
        <mxCell id="mX_RafrJ3beVsuIxFCsf-57" value="CUSTOMER_ORDER_DRUGS" style="swimlane;fontStyle=2;align=center;verticalAlign=top;childLayout=stackLayout;horizontal=1;startSize=26;horizontalStack=0;resizeParent=1;resizeLast=0;collapsible=1;marginBottom=0;rounded=0;shadow=0;strokeWidth=1;" parent="1" vertex="1">
          <mxGeometry x="870" y="30" width="200" height="306" as="geometry">
            <mxRectangle x="230" y="140" width="160" height="26" as="alternateBounds" />
          </mxGeometry>
        </mxCell>
        <mxCell id="mX_RafrJ3beVsuIxFCsf-58" value="- box_id" style="text;align=left;verticalAlign=top;spacingLeft=4;spacingRight=4;overflow=hidden;rotatable=0;points=[[0,0.5],[1,0.5]];portConstraint=eastwest;" parent="mX_RafrJ3beVsuIxFCsf-57" vertex="1">
          <mxGeometry y="26" width="200" height="26" as="geometry" />
        </mxCell>
        <mxCell id="mX_RafrJ3beVsuIxFCsf-59" value="- order_drugs_id" style="text;align=left;verticalAlign=top;spacingLeft=4;spacingRight=4;overflow=hidden;rotatable=0;points=[[0,0.5],[1,0.5]];portConstraint=eastwest;" parent="mX_RafrJ3beVsuIxFCsf-57" vertex="1">
          <mxGeometry y="52" width="200" height="26" as="geometry" />
        </mxCell>
        <mxCell id="mX_RafrJ3beVsuIxFCsf-60" value="- customer_order_id" style="text;align=left;verticalAlign=top;spacingLeft=4;spacingRight=4;overflow=hidden;rotatable=0;points=[[0,0.5],[1,0.5]];portConstraint=eastwest;" parent="mX_RafrJ3beVsuIxFCsf-57" vertex="1">
          <mxGeometry y="78" width="200" height="26" as="geometry" />
        </mxCell>
        <mxCell id="mX_RafrJ3beVsuIxFCsf-61" value="- total_quantity" style="text;align=left;verticalAlign=top;spacingLeft=4;spacingRight=4;overflow=hidden;rotatable=0;points=[[0,0.5],[1,0.5]];portConstraint=eastwest;" parent="mX_RafrJ3beVsuIxFCsf-57" vertex="1">
          <mxGeometry y="104" width="200" height="26" as="geometry" />
        </mxCell>
        <mxCell id="mX_RafrJ3beVsuIxFCsf-62" value="- charged_quantity" style="text;align=left;verticalAlign=top;spacingLeft=4;spacingRight=4;overflow=hidden;rotatable=0;points=[[0,0.5],[1,0.5]];portConstraint=eastwest;" parent="mX_RafrJ3beVsuIxFCsf-57" vertex="1">
          <mxGeometry y="130" width="200" height="26" as="geometry" />
        </mxCell>
        <mxCell id="mX_RafrJ3beVsuIxFCsf-63" value="- incomplete_quantity" style="text;align=left;verticalAlign=top;spacingLeft=4;spacingRight=4;overflow=hidden;rotatable=0;points=[[0,0.5],[1,0.5]];portConstraint=eastwest;" parent="mX_RafrJ3beVsuIxFCsf-57" vertex="1">
          <mxGeometry y="156" width="200" height="26" as="geometry" />
        </mxCell>
        <mxCell id="mX_RafrJ3beVsuIxFCsf-64" value="- expration_date" style="text;align=left;verticalAlign=top;spacingLeft=4;spacingRight=4;overflow=hidden;rotatable=0;points=[[0,0.5],[1,0.5]];portConstraint=eastwest;" parent="mX_RafrJ3beVsuIxFCsf-57" vertex="1">
          <mxGeometry y="182" width="200" height="26" as="geometry" />
        </mxCell>
        <mxCell id="mX_RafrJ3beVsuIxFCsf-65" value="- drug id" style="text;align=left;verticalAlign=top;spacingLeft=4;spacingRight=4;overflow=hidden;rotatable=0;points=[[0,0.5],[1,0.5]];portConstraint=eastwest;" parent="mX_RafrJ3beVsuIxFCsf-57" vertex="1">
          <mxGeometry y="208" width="200" height="26" as="geometry" />
        </mxCell>
        <mxCell id="mX_RafrJ3beVsuIxFCsf-66" value="- supplier_order_list" style="text;align=left;verticalAlign=top;spacingLeft=4;spacingRight=4;overflow=hidden;rotatable=0;points=[[0,0.5],[1,0.5]];portConstraint=eastwest;" parent="mX_RafrJ3beVsuIxFCsf-57" vertex="1">
          <mxGeometry y="234" width="200" height="26" as="geometry" />
        </mxCell>
        <mxCell id="mX_RafrJ3beVsuIxFCsf-67" value="" style="line;html=1;strokeWidth=1;align=left;verticalAlign=middle;spacingTop=-1;spacingLeft=3;spacingRight=3;rotatable=0;labelPosition=right;points=[];portConstraint=eastwest;" parent="mX_RafrJ3beVsuIxFCsf-57" vertex="1">
          <mxGeometry y="260" width="200" height="16" as="geometry" />
        </mxCell>
        <mxCell id="mX_RafrJ3beVsuIxFCsf-68" value="" style="endArrow=classic;html=1;entryX=0;entryY=0.25;entryDx=0;entryDy=0;exitX=1;exitY=0.5;exitDx=0;exitDy=0;" parent="1" source="mX_RafrJ3beVsuIxFCsf-38" target="mX_RafrJ3beVsuIxFCsf-57" edge="1">
          <mxGeometry width="50" height="50" relative="1" as="geometry">
            <mxPoint x="520" y="430" as="sourcePoint" />
            <mxPoint x="250" y="390" as="targetPoint" />
          </mxGeometry>
        </mxCell>
        <mxCell id="mX_RafrJ3beVsuIxFCsf-69" value="1" style="edgeLabel;html=1;align=center;verticalAlign=middle;resizable=0;points=[];" parent="mX_RafrJ3beVsuIxFCsf-68" vertex="1" connectable="0">
          <mxGeometry x="-0.9249" relative="1" as="geometry">
            <mxPoint x="10.379999999999999" y="4.26" as="offset" />
          </mxGeometry>
        </mxCell>
        <mxCell id="mX_RafrJ3beVsuIxFCsf-70" value="1..*" style="edgeLabel;html=1;align=center;verticalAlign=middle;resizable=0;points=[];" parent="mX_RafrJ3beVsuIxFCsf-68" vertex="1" connectable="0">
          <mxGeometry x="0.9013" y="-1" relative="1" as="geometry">
            <mxPoint x="-9.67" y="-18.51" as="offset" />
          </mxGeometry>
        </mxCell>
        <mxCell id="mX_RafrJ3beVsuIxFCsf-71" value="USERS" style="swimlane;fontStyle=2;align=center;verticalAlign=top;childLayout=stackLayout;horizontal=1;startSize=26;horizontalStack=0;resizeParent=1;resizeLast=0;collapsible=1;marginBottom=0;rounded=0;shadow=0;strokeWidth=1;" parent="1" vertex="1">
          <mxGeometry x="30" y="550" width="160" height="250" as="geometry">
            <mxRectangle x="230" y="140" width="160" height="26" as="alternateBounds" />
          </mxGeometry>
        </mxCell>
        <mxCell id="mX_RafrJ3beVsuIxFCsf-72" value="- user_id" style="text;align=left;verticalAlign=top;spacingLeft=4;spacingRight=4;overflow=hidden;rotatable=0;points=[[0,0.5],[1,0.5]];portConstraint=eastwest;" parent="mX_RafrJ3beVsuIxFCsf-71" vertex="1">
          <mxGeometry y="26" width="160" height="26" as="geometry" />
        </mxCell>
        <mxCell id="mX_RafrJ3beVsuIxFCsf-73" value="- name" style="text;align=left;verticalAlign=top;spacingLeft=4;spacingRight=4;overflow=hidden;rotatable=0;points=[[0,0.5],[1,0.5]];portConstraint=eastwest;" parent="mX_RafrJ3beVsuIxFCsf-71" vertex="1">
          <mxGeometry y="52" width="160" height="26" as="geometry" />
        </mxCell>
        <mxCell id="mX_RafrJ3beVsuIxFCsf-74" value="- surname" style="text;align=left;verticalAlign=top;spacingLeft=4;spacingRight=4;overflow=hidden;rotatable=0;points=[[0,0.5],[1,0.5]];portConstraint=eastwest;" parent="mX_RafrJ3beVsuIxFCsf-71" vertex="1">
          <mxGeometry y="78" width="160" height="26" as="geometry" />
        </mxCell>
        <mxCell id="mX_RafrJ3beVsuIxFCsf-75" value="- username" style="text;align=left;verticalAlign=top;spacingLeft=4;spacingRight=4;overflow=hidden;rotatable=0;points=[[0,0.5],[1,0.5]];portConstraint=eastwest;" parent="mX_RafrJ3beVsuIxFCsf-71" vertex="1">
          <mxGeometry y="104" width="160" height="26" as="geometry" />
        </mxCell>
        <mxCell id="mX_RafrJ3beVsuIxFCsf-76" value="- email" style="text;align=left;verticalAlign=top;spacingLeft=4;spacingRight=4;overflow=hidden;rotatable=0;points=[[0,0.5],[1,0.5]];portConstraint=eastwest;rounded=0;shadow=0;html=0;" parent="mX_RafrJ3beVsuIxFCsf-71" vertex="1">
          <mxGeometry y="130" width="160" height="26" as="geometry" />
        </mxCell>
        <mxCell id="mX_RafrJ3beVsuIxFCsf-77" value="- password" style="text;align=left;verticalAlign=top;spacingLeft=4;spacingRight=4;overflow=hidden;rotatable=0;points=[[0,0.5],[1,0.5]];portConstraint=eastwest;rounded=0;shadow=0;html=0;" parent="mX_RafrJ3beVsuIxFCsf-71" vertex="1">
          <mxGeometry y="156" width="160" height="26" as="geometry" />
        </mxCell>
        <mxCell id="mX_RafrJ3beVsuIxFCsf-78" value="- role" style="text;align=left;verticalAlign=top;spacingLeft=4;spacingRight=4;overflow=hidden;rotatable=0;points=[[0,0.5],[1,0.5]];portConstraint=eastwest;rounded=0;shadow=0;html=0;" parent="mX_RafrJ3beVsuIxFCsf-71" vertex="1">
          <mxGeometry y="182" width="160" height="26" as="geometry" />
        </mxCell>
        <mxCell id="mX_RafrJ3beVsuIxFCsf-79" value="" style="line;html=1;strokeWidth=1;align=left;verticalAlign=middle;spacingTop=-1;spacingLeft=3;spacingRight=3;rotatable=0;labelPosition=right;points=[];portConstraint=eastwest;" parent="mX_RafrJ3beVsuIxFCsf-71" vertex="1">
          <mxGeometry y="208" width="160" height="8" as="geometry" />
        </mxCell>
        <mxCell id="mX_RafrJ3beVsuIxFCsf-80" value="- - -" style="text;align=left;verticalAlign=top;spacingLeft=4;spacingRight=4;overflow=hidden;rotatable=0;points=[[0,0.5],[1,0.5]];portConstraint=eastwest;" parent="mX_RafrJ3beVsuIxFCsf-71" vertex="1">
          <mxGeometry y="216" width="160" height="26" as="geometry" />
        </mxCell>
        <mxCell id="mX_RafrJ3beVsuIxFCsf-81" value="" style="endArrow=classic;html=1;exitX=1.015;exitY=-0.121;exitDx=0;exitDy=0;exitPerimeter=0;entryX=0.001;entryY=0.769;entryDx=0;entryDy=0;entryPerimeter=0;" parent="1" source="mX_RafrJ3beVsuIxFCsf-73" target="mX_RafrJ3beVsuIxFCsf-27" edge="1">
          <mxGeometry width="50" height="50" relative="1" as="geometry">
            <mxPoint x="190" y="430" as="sourcePoint" />
            <mxPoint x="287" y="335" as="targetPoint" />
            <Array as="points">
              <mxPoint x="240" y="530" />
            </Array>
          </mxGeometry>
        </mxCell>
        <mxCell id="mX_RafrJ3beVsuIxFCsf-82" value="1" style="edgeLabel;html=1;align=center;verticalAlign=middle;resizable=0;points=[];" parent="mX_RafrJ3beVsuIxFCsf-81" vertex="1" connectable="0">
          <mxGeometry x="-0.7739" relative="1" as="geometry">
            <mxPoint x="7" y="7" as="offset" />
          </mxGeometry>
        </mxCell>
        <mxCell id="mX_RafrJ3beVsuIxFCsf-83" value="1" style="edgeLabel;html=1;align=center;verticalAlign=middle;resizable=0;points=[];" parent="mX_RafrJ3beVsuIxFCsf-81" vertex="1" connectable="0">
          <mxGeometry x="0.7524" y="-1" relative="1" as="geometry">
            <mxPoint x="-8" y="-10" as="offset" />
          </mxGeometry>
        </mxCell>
        <mxCell id="mX_RafrJ3beVsuIxFCsf-84" value="" style="endArrow=classic;html=1;entryX=0;entryY=0.5;entryDx=0;entryDy=0;exitX=1;exitY=0.5;exitDx=0;exitDy=0;" parent="1" source="mX_RafrJ3beVsuIxFCsf-76" target="mX_RafrJ3beVsuIxFCsf-49" edge="1">
          <mxGeometry width="50" height="50" relative="1" as="geometry">
            <mxPoint x="190" y="490" as="sourcePoint" />
            <mxPoint x="340" y="420" as="targetPoint" />
          </mxGeometry>
        </mxCell>
        <mxCell id="mX_RafrJ3beVsuIxFCsf-85" value="1" style="edgeLabel;html=1;align=center;verticalAlign=middle;resizable=0;points=[];" parent="mX_RafrJ3beVsuIxFCsf-84" vertex="1" connectable="0">
          <mxGeometry x="-0.9102" y="-3" relative="1" as="geometry">
            <mxPoint x="-3" y="7" as="offset" />
          </mxGeometry>
        </mxCell>
        <mxCell id="mX_RafrJ3beVsuIxFCsf-86" value="1" style="edgeLabel;html=1;align=center;verticalAlign=middle;resizable=0;points=[];" parent="mX_RafrJ3beVsuIxFCsf-84" vertex="1" connectable="0">
          <mxGeometry x="0.9153" y="1" relative="1" as="geometry">
            <mxPoint x="-18" y="-11" as="offset" />
          </mxGeometry>
        </mxCell>
        <mxCell id="mX_RafrJ3beVsuIxFCsf-87" value="CUSTOMER_SUPPLY_ORDER" style="swimlane;fontStyle=2;align=center;verticalAlign=top;childLayout=stackLayout;horizontal=1;startSize=26;horizontalStack=0;resizeParent=1;resizeLast=0;collapsible=1;marginBottom=0;rounded=0;shadow=0;strokeWidth=1;" parent="1" vertex="1">
          <mxGeometry x="1069.9999999999998" y="940" width="210" height="592" as="geometry">
            <mxRectangle x="230" y="140" width="160" height="26" as="alternateBounds" />
          </mxGeometry>
        </mxCell>
        <mxCell id="mX_RafrJ3beVsuIxFCsf-88" value="- customer_supplier_order_id" style="text;align=left;verticalAlign=top;spacingLeft=4;spacingRight=4;overflow=hidden;rotatable=0;points=[[0,0.5],[1,0.5]];portConstraint=eastwest;" parent="mX_RafrJ3beVsuIxFCsf-87" vertex="1">
          <mxGeometry y="26" width="210" height="26" as="geometry" />
        </mxCell>
        <mxCell id="mX_RafrJ3beVsuIxFCsf-89" value="- customer_order_drugs_id" style="text;align=left;verticalAlign=top;spacingLeft=4;spacingRight=4;overflow=hidden;rotatable=0;points=[[0,0.5],[1,0.5]];portConstraint=eastwest;" parent="mX_RafrJ3beVsuIxFCsf-87" vertex="1">
          <mxGeometry y="52" width="210" height="26" as="geometry" />
        </mxCell>
        <mxCell id="mX_RafrJ3beVsuIxFCsf-90" value="-supplier_id" style="text;align=left;verticalAlign=top;spacingLeft=4;spacingRight=4;overflow=hidden;rotatable=0;points=[[0,0.5],[1,0.5]];portConstraint=eastwest;" parent="mX_RafrJ3beVsuIxFCsf-87" vertex="1">
          <mxGeometry y="78" width="210" height="26" as="geometry" />
        </mxCell>
        <mxCell id="mX_RafrJ3beVsuIxFCsf-91" value="-createdAt" style="text;align=left;verticalAlign=top;spacingLeft=4;spacingRight=4;overflow=hidden;rotatable=0;points=[[0,0.5],[1,0.5]];portConstraint=eastwest;" parent="mX_RafrJ3beVsuIxFCsf-87" vertex="1">
          <mxGeometry y="104" width="210" height="26" as="geometry" />
        </mxCell>
        <mxCell id="mX_RafrJ3beVsuIxFCsf-92" value="-quantity&#xa;" style="text;align=left;verticalAlign=top;spacingLeft=4;spacingRight=4;overflow=hidden;rotatable=0;points=[[0,0.5],[1,0.5]];portConstraint=eastwest;" parent="mX_RafrJ3beVsuIxFCsf-87" vertex="1">
          <mxGeometry y="130" width="210" height="26" as="geometry" />
        </mxCell>
        <mxCell id="mX_RafrJ3beVsuIxFCsf-93" value="-unit_price" style="text;align=left;verticalAlign=top;spacingLeft=4;spacingRight=4;overflow=hidden;rotatable=0;points=[[0,0.5],[1,0.5]];portConstraint=eastwest;" parent="mX_RafrJ3beVsuIxFCsf-87" vertex="1">
          <mxGeometry y="156" width="210" height="26" as="geometry" />
        </mxCell>
        <mxCell id="mX_RafrJ3beVsuIxFCsf-94" value="-surplus_percentage" style="text;align=left;verticalAlign=top;spacingLeft=4;spacingRight=4;overflow=hidden;rotatable=0;points=[[0,0.5],[1,0.5]];portConstraint=eastwest;" parent="mX_RafrJ3beVsuIxFCsf-87" vertex="1">
          <mxGeometry y="182" width="210" height="26" as="geometry" />
        </mxCell>
        <mxCell id="mX_RafrJ3beVsuIxFCsf-95" value="- total_price" style="text;align=left;verticalAlign=top;spacingLeft=4;spacingRight=4;overflow=hidden;rotatable=0;points=[[0,0.5],[1,0.5]];portConstraint=eastwest;" parent="mX_RafrJ3beVsuIxFCsf-87" vertex="1">
          <mxGeometry y="208" width="210" height="26" as="geometry" />
        </mxCell>
        <mxCell id="mX_RafrJ3beVsuIxFCsf-96" value="- kurum_iskonto" style="text;align=left;verticalAlign=top;spacingLeft=4;spacingRight=4;overflow=hidden;rotatable=0;points=[[0,0.5],[1,0.5]];portConstraint=eastwest;" parent="mX_RafrJ3beVsuIxFCsf-87" vertex="1">
          <mxGeometry y="234" width="210" height="26" as="geometry" />
        </mxCell>
        <mxCell id="mX_RafrJ3beVsuIxFCsf-97" value="- genel_iskonto" style="text;align=left;verticalAlign=top;spacingLeft=4;spacingRight=4;overflow=hidden;rotatable=0;points=[[0,0.5],[1,0.5]];portConstraint=eastwest;" parent="mX_RafrJ3beVsuIxFCsf-87" vertex="1">
          <mxGeometry y="260" width="210" height="26" as="geometry" />
        </mxCell>
        <mxCell id="mX_RafrJ3beVsuIxFCsf-98" value="- kdv_tax" style="text;align=left;verticalAlign=top;spacingLeft=4;spacingRight=4;overflow=hidden;rotatable=0;points=[[0,0.5],[1,0.5]];portConstraint=eastwest;" parent="mX_RafrJ3beVsuIxFCsf-87" vertex="1">
          <mxGeometry y="286" width="210" height="26" as="geometry" />
        </mxCell>
        <mxCell id="mX_RafrJ3beVsuIxFCsf-99" value="- general_price" style="text;align=left;verticalAlign=top;spacingLeft=4;spacingRight=4;overflow=hidden;rotatable=0;points=[[0,0.5],[1,0.5]];portConstraint=eastwest;" parent="mX_RafrJ3beVsuIxFCsf-87" vertex="1">
          <mxGeometry y="312" width="210" height="26" as="geometry" />
        </mxCell>
        <mxCell id="mX_RafrJ3beVsuIxFCsf-100" value="- iris_no" style="text;align=left;verticalAlign=top;spacingLeft=4;spacingRight=4;overflow=hidden;rotatable=0;points=[[0,0.5],[1,0.5]];portConstraint=eastwest;" parent="mX_RafrJ3beVsuIxFCsf-87" vertex="1">
          <mxGeometry y="338" width="210" height="26" as="geometry" />
        </mxCell>
        <mxCell id="mX_RafrJ3beVsuIxFCsf-101" value="- fat_no" style="text;align=left;verticalAlign=top;spacingLeft=4;spacingRight=4;overflow=hidden;rotatable=0;points=[[0,0.5],[1,0.5]];portConstraint=eastwest;" parent="mX_RafrJ3beVsuIxFCsf-87" vertex="1">
          <mxGeometry y="364" width="210" height="26" as="geometry" />
        </mxCell>
        <mxCell id="mX_RafrJ3beVsuIxFCsf-102" value="- unit-price" style="text;align=left;verticalAlign=top;spacingLeft=4;spacingRight=4;overflow=hidden;rotatable=0;points=[[0,0.5],[1,0.5]];portConstraint=eastwest;" parent="mX_RafrJ3beVsuIxFCsf-87" vertex="1">
          <mxGeometry y="390" width="210" height="26" as="geometry" />
        </mxCell>
        <mxCell id="mX_RafrJ3beVsuIxFCsf-103" value="-exp_date" style="text;align=left;verticalAlign=top;spacingLeft=4;spacingRight=4;overflow=hidden;rotatable=0;points=[[0,0.5],[1,0.5]];portConstraint=eastwest;" parent="mX_RafrJ3beVsuIxFCsf-87" vertex="1">
          <mxGeometry y="416" width="210" height="26" as="geometry" />
        </mxCell>
        <mxCell id="mX_RafrJ3beVsuIxFCsf-104" value="- status" style="text;align=left;verticalAlign=top;spacingLeft=4;spacingRight=4;overflow=hidden;rotatable=0;points=[[0,0.5],[1,0.5]];portConstraint=eastwest;" parent="mX_RafrJ3beVsuIxFCsf-87" vertex="1">
          <mxGeometry y="442" width="210" height="28" as="geometry" />
        </mxCell>
        <mxCell id="T5wTIGkzyn7Ef-j0K9qf-1" value="-drug_card_id" style="text;html=1;align=left;verticalAlign=middle;resizable=0;points=[];autosize=1;" vertex="1" parent="mX_RafrJ3beVsuIxFCsf-87">
          <mxGeometry y="470" width="210" height="20" as="geometry" />
        </mxCell>
        <mxCell id="mX_RafrJ3beVsuIxFCsf-105" value="" style="line;html=1;strokeWidth=1;align=left;verticalAlign=middle;spacingTop=-1;spacingLeft=3;spacingRight=3;rotatable=0;labelPosition=right;points=[];portConstraint=eastwest;" parent="mX_RafrJ3beVsuIxFCsf-87" vertex="1">
          <mxGeometry y="490" width="210" height="78" as="geometry" />
        </mxCell>
        <mxCell id="mX_RafrJ3beVsuIxFCsf-106" value="- - -" style="text;align=left;verticalAlign=top;spacingLeft=4;spacingRight=4;overflow=hidden;rotatable=0;points=[[0,0.5],[1,0.5]];portConstraint=eastwest;" parent="mX_RafrJ3beVsuIxFCsf-87" vertex="1">
          <mxGeometry y="568" width="210" height="24" as="geometry" />
        </mxCell>
        <mxCell id="mX_RafrJ3beVsuIxFCsf-107" value="" style="endArrow=classic;html=1;entryX=0;entryY=0.5;entryDx=0;entryDy=0;exitX=1;exitY=0.5;exitDx=0;exitDy=0;" parent="1" source="mX_RafrJ3beVsuIxFCsf-123" target="mX_RafrJ3beVsuIxFCsf-92" edge="1">
          <mxGeometry width="50" height="50" relative="1" as="geometry">
            <mxPoint x="310" y="470" as="sourcePoint" />
            <mxPoint x="810" y="477" as="targetPoint" />
          </mxGeometry>
        </mxCell>
        <mxCell id="mX_RafrJ3beVsuIxFCsf-108" value="1..*" style="edgeLabel;html=1;align=center;verticalAlign=middle;resizable=0;points=[];" parent="mX_RafrJ3beVsuIxFCsf-107" vertex="1" connectable="0">
          <mxGeometry x="-0.783" relative="1" as="geometry">
            <mxPoint x="450.17" y="14.43" as="offset" />
          </mxGeometry>
        </mxCell>
        <mxCell id="mX_RafrJ3beVsuIxFCsf-109" value="1" style="edgeLabel;html=1;align=center;verticalAlign=middle;resizable=0;points=[];" parent="mX_RafrJ3beVsuIxFCsf-107" vertex="1" connectable="0">
          <mxGeometry x="0.7485" y="1" relative="1" as="geometry">
            <mxPoint x="-451.53" y="-16.77" as="offset" />
          </mxGeometry>
        </mxCell>
        <mxCell id="mX_RafrJ3beVsuIxFCsf-110" value="BOX" style="swimlane;fontStyle=2;align=center;verticalAlign=top;childLayout=stackLayout;horizontal=1;startSize=26;horizontalStack=0;resizeParent=1;resizeLast=0;collapsible=1;marginBottom=0;rounded=0;shadow=0;strokeWidth=1;" parent="1" vertex="1">
          <mxGeometry x="1270" y="20" width="160" height="242" as="geometry">
            <mxRectangle x="230" y="140" width="160" height="26" as="alternateBounds" />
          </mxGeometry>
        </mxCell>
        <mxCell id="mX_RafrJ3beVsuIxFCsf-111" value="- box_id" style="text;align=left;verticalAlign=top;spacingLeft=4;spacingRight=4;overflow=hidden;rotatable=0;points=[[0,0.5],[1,0.5]];portConstraint=eastwest;" parent="mX_RafrJ3beVsuIxFCsf-110" vertex="1">
          <mxGeometry y="26" width="160" height="26" as="geometry" />
        </mxCell>
        <mxCell id="mX_RafrJ3beVsuIxFCsf-112" value="- box_no" style="text;align=left;verticalAlign=top;spacingLeft=4;spacingRight=4;overflow=hidden;rotatable=0;points=[[0,0.5],[1,0.5]];portConstraint=eastwest;" parent="mX_RafrJ3beVsuIxFCsf-110" vertex="1">
          <mxGeometry y="52" width="160" height="26" as="geometry" />
        </mxCell>
        <mxCell id="mX_RafrJ3beVsuIxFCsf-113" value="- customer_order_id" style="text;align=left;verticalAlign=top;spacingLeft=4;spacingRight=4;overflow=hidden;rotatable=0;points=[[0,0.5],[1,0.5]];portConstraint=eastwest;" parent="mX_RafrJ3beVsuIxFCsf-110" vertex="1">
          <mxGeometry y="78" width="160" height="26" as="geometry" />
        </mxCell>
        <mxCell id="mX_RafrJ3beVsuIxFCsf-114" value="-  drug_barcode" style="text;align=left;verticalAlign=top;spacingLeft=4;spacingRight=4;overflow=hidden;rotatable=0;points=[[0,0.5],[1,0.5]];portConstraint=eastwest;" parent="mX_RafrJ3beVsuIxFCsf-110" vertex="1">
          <mxGeometry y="104" width="160" height="26" as="geometry" />
        </mxCell>
        <mxCell id="mX_RafrJ3beVsuIxFCsf-115" value="- box_size" style="text;align=left;verticalAlign=top;spacingLeft=4;spacingRight=4;overflow=hidden;rotatable=0;points=[[0,0.5],[1,0.5]];portConstraint=eastwest;" parent="mX_RafrJ3beVsuIxFCsf-110" vertex="1">
          <mxGeometry y="130" width="160" height="26" as="geometry" />
        </mxCell>
        <mxCell id="mX_RafrJ3beVsuIxFCsf-116" value="- box_weight" style="text;align=left;verticalAlign=top;spacingLeft=4;spacingRight=4;overflow=hidden;rotatable=0;points=[[0,0.5],[1,0.5]];portConstraint=eastwest;" parent="mX_RafrJ3beVsuIxFCsf-110" vertex="1">
          <mxGeometry y="156" width="160" height="26" as="geometry" />
        </mxCell>
        <mxCell id="mX_RafrJ3beVsuIxFCsf-117" value="- status" style="text;align=left;verticalAlign=top;spacingLeft=4;spacingRight=4;overflow=hidden;rotatable=0;points=[[0,0.5],[1,0.5]];portConstraint=eastwest;" parent="mX_RafrJ3beVsuIxFCsf-110" vertex="1">
          <mxGeometry y="182" width="160" height="26" as="geometry" />
        </mxCell>
        <mxCell id="mX_RafrJ3beVsuIxFCsf-118" value="" style="line;html=1;strokeWidth=1;align=left;verticalAlign=middle;spacingTop=-1;spacingLeft=3;spacingRight=3;rotatable=0;labelPosition=right;points=[];portConstraint=eastwest;" parent="mX_RafrJ3beVsuIxFCsf-110" vertex="1">
          <mxGeometry y="208" width="160" height="8" as="geometry" />
        </mxCell>
        <mxCell id="mX_RafrJ3beVsuIxFCsf-119" value="- - -" style="text;align=left;verticalAlign=top;spacingLeft=4;spacingRight=4;overflow=hidden;rotatable=0;points=[[0,0.5],[1,0.5]];portConstraint=eastwest;" parent="mX_RafrJ3beVsuIxFCsf-110" vertex="1">
          <mxGeometry y="216" width="160" height="26" as="geometry" />
        </mxCell>
        <mxCell id="mX_RafrJ3beVsuIxFCsf-120" value="SUPPLIER" style="swimlane;fontStyle=2;align=center;verticalAlign=top;childLayout=stackLayout;horizontal=1;startSize=26;horizontalStack=0;resizeParent=1;resizeLast=0;collapsible=1;marginBottom=0;rounded=0;shadow=0;strokeWidth=1;" parent="1" vertex="1">
          <mxGeometry x="350" y="950" width="170" height="426" as="geometry">
            <mxRectangle x="230" y="140" width="160" height="26" as="alternateBounds" />
          </mxGeometry>
        </mxCell>
        <mxCell id="mX_RafrJ3beVsuIxFCsf-121" value="- supplier_id" style="text;align=left;verticalAlign=top;spacingLeft=4;spacingRight=4;overflow=hidden;rotatable=0;points=[[0,0.5],[1,0.5]];portConstraint=eastwest;" parent="mX_RafrJ3beVsuIxFCsf-120" vertex="1">
          <mxGeometry y="26" width="170" height="26" as="geometry" />
        </mxCell>
        <mxCell id="mX_RafrJ3beVsuIxFCsf-122" value="- supplier_name" style="text;align=left;verticalAlign=top;spacingLeft=4;spacingRight=4;overflow=hidden;rotatable=0;points=[[0,0.5],[1,0.5]];portConstraint=eastwest;" parent="mX_RafrJ3beVsuIxFCsf-120" vertex="1">
          <mxGeometry y="52" width="170" height="26" as="geometry" />
        </mxCell>
        <mxCell id="mX_RafrJ3beVsuIxFCsf-123" value="- supplier_city" style="text;align=left;verticalAlign=top;spacingLeft=4;spacingRight=4;overflow=hidden;rotatable=0;points=[[0,0.5],[1,0.5]];portConstraint=eastwest;" parent="mX_RafrJ3beVsuIxFCsf-120" vertex="1">
          <mxGeometry y="78" width="170" height="26" as="geometry" />
        </mxCell>
        <mxCell id="mX_RafrJ3beVsuIxFCsf-124" value="- suppleier_district" style="text;align=left;verticalAlign=top;spacingLeft=4;spacingRight=4;overflow=hidden;rotatable=0;points=[[0,0.5],[1,0.5]];portConstraint=eastwest;" parent="mX_RafrJ3beVsuIxFCsf-120" vertex="1">
          <mxGeometry y="104" width="170" height="26" as="geometry" />
        </mxCell>
        <mxCell id="mX_RafrJ3beVsuIxFCsf-125" value="- supplier_phone_number" style="text;align=left;verticalAlign=top;spacingLeft=4;spacingRight=4;overflow=hidden;rotatable=0;points=[[0,0.5],[1,0.5]];portConstraint=eastwest;" parent="mX_RafrJ3beVsuIxFCsf-120" vertex="1">
          <mxGeometry y="130" width="170" height="26" as="geometry" />
        </mxCell>
        <mxCell id="mX_RafrJ3beVsuIxFCsf-126" value="- supplier_email" style="text;align=left;verticalAlign=top;spacingLeft=4;spacingRight=4;overflow=hidden;rotatable=0;points=[[0,0.5],[1,0.5]];portConstraint=eastwest;rounded=0;shadow=0;html=0;" parent="mX_RafrJ3beVsuIxFCsf-120" vertex="1">
          <mxGeometry y="156" width="170" height="26" as="geometry" />
        </mxCell>
        <mxCell id="mX_RafrJ3beVsuIxFCsf-127" value="- supplier_email" style="text;align=left;verticalAlign=top;spacingLeft=4;spacingRight=4;overflow=hidden;rotatable=0;points=[[0,0.5],[1,0.5]];portConstraint=eastwest;rounded=0;shadow=0;html=0;" parent="mX_RafrJ3beVsuIxFCsf-120" vertex="1">
          <mxGeometry y="182" width="170" height="26" as="geometry" />
        </mxCell>
        <mxCell id="mX_RafrJ3beVsuIxFCsf-128" value="- supplier_fax" style="text;align=left;verticalAlign=top;spacingLeft=4;spacingRight=4;overflow=hidden;rotatable=0;points=[[0,0.5],[1,0.5]];portConstraint=eastwest;rounded=0;shadow=0;html=0;" parent="mX_RafrJ3beVsuIxFCsf-120" vertex="1">
          <mxGeometry y="208" width="170" height="26" as="geometry" />
        </mxCell>
        <mxCell id="mX_RafrJ3beVsuIxFCsf-129" value="- supplier_adress" style="text;align=left;verticalAlign=top;spacingLeft=4;spacingRight=4;overflow=hidden;rotatable=0;points=[[0,0.5],[1,0.5]];portConstraint=eastwest;rounded=0;shadow=0;html=0;" parent="mX_RafrJ3beVsuIxFCsf-120" vertex="1">
          <mxGeometry y="234" width="170" height="26" as="geometry" />
        </mxCell>
        <mxCell id="mX_RafrJ3beVsuIxFCsf-130" value="- supplier_status" style="text;align=left;verticalAlign=top;spacingLeft=4;spacingRight=4;overflow=hidden;rotatable=0;points=[[0,0.5],[1,0.5]];portConstraint=eastwest;rounded=0;shadow=0;html=0;" parent="mX_RafrJ3beVsuIxFCsf-120" vertex="1">
          <mxGeometry y="260" width="170" height="26" as="geometry" />
        </mxCell>
        <mxCell id="mX_RafrJ3beVsuIxFCsf-131" value="-surplus_percentage" style="text;html=1;strokeColor=none;fillColor=none;align=left;verticalAlign=middle;whiteSpace=wrap;rounded=0;" parent="mX_RafrJ3beVsuIxFCsf-120" vertex="1">
          <mxGeometry y="286" width="170" height="30" as="geometry" />
        </mxCell>
        <mxCell id="mX_RafrJ3beVsuIxFCsf-132" value="- supplier_supervisor_id" style="text;align=left;verticalAlign=top;spacingLeft=4;spacingRight=4;overflow=hidden;rotatable=0;points=[[0,0.5],[1,0.5]];portConstraint=eastwest;" parent="mX_RafrJ3beVsuIxFCsf-120" vertex="1">
          <mxGeometry y="316" width="170" height="26" as="geometry" />
        </mxCell>
        <mxCell id="mX_RafrJ3beVsuIxFCsf-133" value="" style="line;html=1;strokeWidth=1;align=left;verticalAlign=middle;spacingTop=-1;spacingLeft=3;spacingRight=3;rotatable=0;labelPosition=right;points=[];portConstraint=eastwest;" parent="mX_RafrJ3beVsuIxFCsf-120" vertex="1">
          <mxGeometry y="342" width="170" height="54" as="geometry" />
        </mxCell>
        <mxCell id="mX_RafrJ3beVsuIxFCsf-134" value="" style="endArrow=classic;html=1;entryX=0.006;entryY=1.077;entryDx=0;entryDy=0;entryPerimeter=0;exitX=1.01;exitY=0.846;exitDx=0;exitDy=0;exitPerimeter=0;" parent="1" source="mX_RafrJ3beVsuIxFCsf-65" target="mX_RafrJ3beVsuIxFCsf-147" edge="1">
          <mxGeometry width="50" height="50" relative="1" as="geometry">
            <mxPoint x="1054" y="322" as="sourcePoint" />
            <mxPoint x="1080" y="170" as="targetPoint" />
          </mxGeometry>
        </mxCell>
        <mxCell id="mX_RafrJ3beVsuIxFCsf-135" value="1" style="edgeLabel;html=1;align=center;verticalAlign=middle;resizable=0;points=[];" parent="mX_RafrJ3beVsuIxFCsf-134" vertex="1" connectable="0">
          <mxGeometry x="-0.7746" y="-1" relative="1" as="geometry">
            <mxPoint y="-14" as="offset" />
          </mxGeometry>
        </mxCell>
        <mxCell id="mX_RafrJ3beVsuIxFCsf-136" value="1" style="edgeLabel;html=1;align=center;verticalAlign=middle;resizable=0;points=[];" parent="mX_RafrJ3beVsuIxFCsf-134" vertex="1" connectable="0">
          <mxGeometry x="0.6918" y="-2" relative="1" as="geometry">
            <mxPoint x="-204.89" y="95.52" as="offset" />
          </mxGeometry>
        </mxCell>
        <mxCell id="mX_RafrJ3beVsuIxFCsf-137" value="CUSTMER_ORDER_STATUS" style="swimlane;fontStyle=2;align=center;verticalAlign=top;childLayout=stackLayout;horizontal=1;startSize=26;horizontalStack=0;resizeParent=1;resizeLast=0;collapsible=1;marginBottom=0;rounded=0;shadow=0;strokeWidth=1;" parent="1" vertex="1">
          <mxGeometry x="280" y="690" width="180" height="120" as="geometry">
            <mxRectangle x="230" y="140" width="160" height="26" as="alternateBounds" />
          </mxGeometry>
        </mxCell>
        <mxCell id="mX_RafrJ3beVsuIxFCsf-138" value="- order_status_id" style="text;align=left;verticalAlign=top;spacingLeft=4;spacingRight=4;overflow=hidden;rotatable=0;points=[[0,0.5],[1,0.5]];portConstraint=eastwest;" parent="mX_RafrJ3beVsuIxFCsf-137" vertex="1">
          <mxGeometry y="26" width="180" height="26" as="geometry" />
        </mxCell>
        <mxCell id="mX_RafrJ3beVsuIxFCsf-139" value="- name" style="text;align=left;verticalAlign=top;spacingLeft=4;spacingRight=4;overflow=hidden;rotatable=0;points=[[0,0.5],[1,0.5]];portConstraint=eastwest;" parent="mX_RafrJ3beVsuIxFCsf-137" vertex="1">
          <mxGeometry y="52" width="180" height="26" as="geometry" />
        </mxCell>
        <mxCell id="mX_RafrJ3beVsuIxFCsf-140" value="" style="line;html=1;strokeWidth=1;align=left;verticalAlign=middle;spacingTop=-1;spacingLeft=3;spacingRight=3;rotatable=0;labelPosition=right;points=[];portConstraint=eastwest;" parent="mX_RafrJ3beVsuIxFCsf-137" vertex="1">
          <mxGeometry y="78" width="180" height="8" as="geometry" />
        </mxCell>
        <mxCell id="mX_RafrJ3beVsuIxFCsf-141" value="- - -" style="text;align=left;verticalAlign=top;spacingLeft=4;spacingRight=4;overflow=hidden;rotatable=0;points=[[0,0.5],[1,0.5]];portConstraint=eastwest;" parent="mX_RafrJ3beVsuIxFCsf-137" vertex="1">
          <mxGeometry y="86" width="180" height="26" as="geometry" />
        </mxCell>
        <mxCell id="mX_RafrJ3beVsuIxFCsf-142" value="" style="endArrow=classic;html=1;exitX=1;exitY=0.5;exitDx=0;exitDy=0;entryX=0;entryY=0.5;entryDx=0;entryDy=0;" parent="1" source="mX_RafrJ3beVsuIxFCsf-138" target="mX_RafrJ3beVsuIxFCsf-50" edge="1">
          <mxGeometry width="50" height="50" relative="1" as="geometry">
            <mxPoint x="1010" y="620" as="sourcePoint" />
            <mxPoint x="1060" y="570" as="targetPoint" />
          </mxGeometry>
        </mxCell>
        <mxCell id="mX_RafrJ3beVsuIxFCsf-143" value="1" style="edgeLabel;html=1;align=center;verticalAlign=middle;resizable=0;points=[];" parent="mX_RafrJ3beVsuIxFCsf-142" vertex="1" connectable="0">
          <mxGeometry x="-0.7166" y="-2" relative="1" as="geometry">
            <mxPoint x="3" y="14" as="offset" />
          </mxGeometry>
        </mxCell>
        <mxCell id="mX_RafrJ3beVsuIxFCsf-144" value="1" style="edgeLabel;html=1;align=center;verticalAlign=middle;resizable=0;points=[];" parent="mX_RafrJ3beVsuIxFCsf-142" vertex="1" connectable="0">
          <mxGeometry x="0.7202" y="1" relative="1" as="geometry">
            <mxPoint x="-11" y="-4" as="offset" />
          </mxGeometry>
        </mxCell>
        <mxCell id="mX_RafrJ3beVsuIxFCsf-145" style="edgeStyle=orthogonalEdgeStyle;rounded=0;orthogonalLoop=1;jettySize=auto;html=1;entryX=0.571;entryY=0.006;entryDx=0;entryDy=0;entryPerimeter=0;" parent="1" source="mX_RafrJ3beVsuIxFCsf-146" target="mX_RafrJ3beVsuIxFCsf-238" edge="1">
          <mxGeometry relative="1" as="geometry">
            <Array as="points">
              <mxPoint x="1360" y="1190" />
              <mxPoint x="1524" y="1190" />
            </Array>
          </mxGeometry>
        </mxCell>
        <mxCell id="T5wTIGkzyn7Ef-j0K9qf-3" style="edgeStyle=orthogonalEdgeStyle;rounded=0;orthogonalLoop=1;jettySize=auto;html=1;entryX=0.933;entryY=-0.008;entryDx=0;entryDy=0;entryPerimeter=0;" edge="1" parent="1" source="mX_RafrJ3beVsuIxFCsf-146" target="mX_RafrJ3beVsuIxFCsf-87">
          <mxGeometry relative="1" as="geometry" />
        </mxCell>
        <mxCell id="mX_RafrJ3beVsuIxFCsf-146" value="DRUG_CARD" style="swimlane;fontStyle=2;align=center;verticalAlign=top;childLayout=stackLayout;horizontal=1;startSize=26;horizontalStack=0;resizeParent=1;resizeLast=0;collapsible=1;marginBottom=0;rounded=0;shadow=0;strokeWidth=1;" parent="1" vertex="1">
          <mxGeometry x="1220" y="340.48" width="160" height="216" as="geometry">
            <mxRectangle x="230" y="140" width="160" height="26" as="alternateBounds" />
          </mxGeometry>
        </mxCell>
        <mxCell id="mX_RafrJ3beVsuIxFCsf-147" value="- drug_id" style="text;align=left;verticalAlign=top;spacingLeft=4;spacingRight=4;overflow=hidden;rotatable=0;points=[[0,0.5],[1,0.5]];portConstraint=eastwest;" parent="mX_RafrJ3beVsuIxFCsf-146" vertex="1">
          <mxGeometry y="26" width="160" height="26" as="geometry" />
        </mxCell>
        <mxCell id="mX_RafrJ3beVsuIxFCsf-148" value="- drug_name" style="text;align=left;verticalAlign=top;spacingLeft=4;spacingRight=4;overflow=hidden;rotatable=0;points=[[0,0.5],[1,0.5]];portConstraint=eastwest;" parent="mX_RafrJ3beVsuIxFCsf-146" vertex="1">
          <mxGeometry y="52" width="160" height="26" as="geometry" />
        </mxCell>
        <mxCell id="mX_RafrJ3beVsuIxFCsf-149" value="- drug_dose" style="text;align=left;verticalAlign=top;spacingLeft=4;spacingRight=4;overflow=hidden;rotatable=0;points=[[0,0.5],[1,0.5]];portConstraint=eastwest;" parent="mX_RafrJ3beVsuIxFCsf-146" vertex="1">
          <mxGeometry y="78" width="160" height="26" as="geometry" />
        </mxCell>
        <mxCell id="mX_RafrJ3beVsuIxFCsf-150" value="- drug_form" style="text;align=left;verticalAlign=top;spacingLeft=4;spacingRight=4;overflow=hidden;rotatable=0;points=[[0,0.5],[1,0.5]];portConstraint=eastwest;" parent="mX_RafrJ3beVsuIxFCsf-146" vertex="1">
          <mxGeometry y="104" width="160" height="26" as="geometry" />
        </mxCell>
        <mxCell id="mX_RafrJ3beVsuIxFCsf-151" value="- drug_code" style="text;align=left;verticalAlign=top;spacingLeft=4;spacingRight=4;overflow=hidden;rotatable=0;points=[[0,0.5],[1,0.5]];portConstraint=eastwest;" parent="mX_RafrJ3beVsuIxFCsf-146" vertex="1">
          <mxGeometry y="130" width="160" height="26" as="geometry" />
        </mxCell>
        <mxCell id="mX_RafrJ3beVsuIxFCsf-152" value="- status" style="text;align=left;verticalAlign=top;spacingLeft=4;spacingRight=4;overflow=hidden;rotatable=0;points=[[0,0.5],[1,0.5]];portConstraint=eastwest;" parent="mX_RafrJ3beVsuIxFCsf-146" vertex="1">
          <mxGeometry y="156" width="160" height="26" as="geometry" />
        </mxCell>
        <mxCell id="mX_RafrJ3beVsuIxFCsf-153" value="" style="line;html=1;strokeWidth=1;align=left;verticalAlign=middle;spacingTop=-1;spacingLeft=3;spacingRight=3;rotatable=0;labelPosition=right;points=[];portConstraint=eastwest;" parent="mX_RafrJ3beVsuIxFCsf-146" vertex="1">
          <mxGeometry y="182" width="160" height="8" as="geometry" />
        </mxCell>
        <mxCell id="mX_RafrJ3beVsuIxFCsf-154" value="- - -" style="text;align=left;verticalAlign=top;spacingLeft=4;spacingRight=4;overflow=hidden;rotatable=0;points=[[0,0.5],[1,0.5]];portConstraint=eastwest;" parent="mX_RafrJ3beVsuIxFCsf-146" vertex="1">
          <mxGeometry y="190" width="160" height="26" as="geometry" />
        </mxCell>
        <mxCell id="mX_RafrJ3beVsuIxFCsf-155" value="" style="endArrow=classic;html=1;entryX=0.013;entryY=-0.308;entryDx=0;entryDy=0;entryPerimeter=0;exitX=1.001;exitY=0.678;exitDx=0;exitDy=0;exitPerimeter=0;" parent="1" source="mX_RafrJ3beVsuIxFCsf-60" target="mX_RafrJ3beVsuIxFCsf-114" edge="1">
          <mxGeometry width="50" height="50" relative="1" as="geometry">
            <mxPoint x="970" y="50" as="sourcePoint" />
            <mxPoint x="1020" as="targetPoint" />
          </mxGeometry>
        </mxCell>
        <mxCell id="mX_RafrJ3beVsuIxFCsf-156" value="1..*" style="edgeLabel;html=1;align=center;verticalAlign=middle;resizable=0;points=[];" parent="mX_RafrJ3beVsuIxFCsf-155" vertex="1" connectable="0">
          <mxGeometry x="0.763" y="1" relative="1" as="geometry">
            <mxPoint x="-11" y="-13" as="offset" />
          </mxGeometry>
        </mxCell>
        <mxCell id="mX_RafrJ3beVsuIxFCsf-157" value="1" style="edgeLabel;html=1;align=center;verticalAlign=middle;resizable=0;points=[];" parent="mX_RafrJ3beVsuIxFCsf-155" vertex="1" connectable="0">
          <mxGeometry x="-0.8426" y="-1" relative="1" as="geometry">
            <mxPoint y="-17" as="offset" />
          </mxGeometry>
        </mxCell>
        <mxCell id="mX_RafrJ3beVsuIxFCsf-158" value="" style="endArrow=classic;html=1;entryX=0.685;entryY=0.003;entryDx=0;entryDy=0;entryPerimeter=0;exitX=0.5;exitY=1;exitDx=0;exitDy=0;" parent="1" source="mX_RafrJ3beVsuIxFCsf-110" target="mX_RafrJ3beVsuIxFCsf-146" edge="1">
          <mxGeometry width="50" height="50" relative="1" as="geometry">
            <mxPoint x="1050.2" y="179.62799999999993" as="sourcePoint" />
            <mxPoint x="1192.0800000000002" y="165.99199999999996" as="targetPoint" />
          </mxGeometry>
        </mxCell>
        <mxCell id="mX_RafrJ3beVsuIxFCsf-159" value="1" style="edgeLabel;html=1;align=center;verticalAlign=middle;resizable=0;points=[];" parent="mX_RafrJ3beVsuIxFCsf-158" vertex="1" connectable="0">
          <mxGeometry x="0.763" y="1" relative="1" as="geometry">
            <mxPoint x="63.06" y="64.47" as="offset" />
          </mxGeometry>
        </mxCell>
        <mxCell id="mX_RafrJ3beVsuIxFCsf-160" value="1" style="edgeLabel;html=1;align=center;verticalAlign=middle;resizable=0;points=[];" parent="mX_RafrJ3beVsuIxFCsf-158" vertex="1" connectable="0">
          <mxGeometry x="-0.8426" y="-1" relative="1" as="geometry">
            <mxPoint x="-9" y="5" as="offset" />
          </mxGeometry>
        </mxCell>
        <mxCell id="mX_RafrJ3beVsuIxFCsf-161" value="COUNTRY" style="swimlane;fontStyle=2;align=center;verticalAlign=top;childLayout=stackLayout;horizontal=1;startSize=26;horizontalStack=0;resizeParent=1;resizeLast=0;collapsible=1;marginBottom=0;rounded=0;shadow=0;strokeWidth=1;" parent="1" vertex="1">
          <mxGeometry x="200" y="30" width="106" height="120" as="geometry">
            <mxRectangle x="230" y="140" width="160" height="26" as="alternateBounds" />
          </mxGeometry>
        </mxCell>
        <mxCell id="mX_RafrJ3beVsuIxFCsf-162" value="- country_id" style="text;align=left;verticalAlign=top;spacingLeft=4;spacingRight=4;overflow=hidden;rotatable=0;points=[[0,0.5],[1,0.5]];portConstraint=eastwest;" parent="mX_RafrJ3beVsuIxFCsf-161" vertex="1">
          <mxGeometry y="26" width="106" height="26" as="geometry" />
        </mxCell>
        <mxCell id="mX_RafrJ3beVsuIxFCsf-163" value="- name" style="text;align=left;verticalAlign=top;spacingLeft=4;spacingRight=4;overflow=hidden;rotatable=0;points=[[0,0.5],[1,0.5]];portConstraint=eastwest;" parent="mX_RafrJ3beVsuIxFCsf-161" vertex="1">
          <mxGeometry y="52" width="106" height="26" as="geometry" />
        </mxCell>
        <mxCell id="mX_RafrJ3beVsuIxFCsf-164" value="" style="line;html=1;strokeWidth=1;align=left;verticalAlign=middle;spacingTop=-1;spacingLeft=3;spacingRight=3;rotatable=0;labelPosition=right;points=[];portConstraint=eastwest;" parent="mX_RafrJ3beVsuIxFCsf-161" vertex="1">
          <mxGeometry y="78" width="106" height="8" as="geometry" />
        </mxCell>
        <mxCell id="mX_RafrJ3beVsuIxFCsf-165" value="- - -" style="text;align=left;verticalAlign=top;spacingLeft=4;spacingRight=4;overflow=hidden;rotatable=0;points=[[0,0.5],[1,0.5]];portConstraint=eastwest;" parent="mX_RafrJ3beVsuIxFCsf-161" vertex="1">
          <mxGeometry y="86" width="106" height="26" as="geometry" />
        </mxCell>
        <mxCell id="mX_RafrJ3beVsuIxFCsf-166" value="" style="endArrow=classic;html=1;exitX=0.981;exitY=1.011;exitDx=0;exitDy=0;exitPerimeter=0;entryX=0.5;entryY=0;entryDx=0;entryDy=0;" parent="1" source="mX_RafrJ3beVsuIxFCsf-162" target="mX_RafrJ3beVsuIxFCsf-13" edge="1">
          <mxGeometry width="50" height="50" relative="1" as="geometry">
            <mxPoint x="330" y="80" as="sourcePoint" />
            <mxPoint x="410" y="170" as="targetPoint" />
          </mxGeometry>
        </mxCell>
        <mxCell id="mX_RafrJ3beVsuIxFCsf-167" value="1" style="edgeLabel;html=1;align=center;verticalAlign=middle;resizable=0;points=[];" parent="mX_RafrJ3beVsuIxFCsf-166" vertex="1" connectable="0">
          <mxGeometry x="0.6239" y="4" relative="1" as="geometry">
            <mxPoint x="9" y="-8" as="offset" />
          </mxGeometry>
        </mxCell>
        <mxCell id="mX_RafrJ3beVsuIxFCsf-168" value="1" style="edgeLabel;html=1;align=center;verticalAlign=middle;resizable=0;points=[];" parent="mX_RafrJ3beVsuIxFCsf-166" vertex="1" connectable="0">
          <mxGeometry x="-0.4455" y="-1" relative="1" as="geometry">
            <mxPoint x="10" y="-10" as="offset" />
          </mxGeometry>
        </mxCell>
        <mxCell id="mX_RafrJ3beVsuIxFCsf-169" value="" style="endArrow=classic;html=1;exitX=-0.019;exitY=0.143;exitDx=0;exitDy=0;exitPerimeter=0;entryX=0.25;entryY=0;entryDx=0;entryDy=0;" parent="1" source="mX_RafrJ3beVsuIxFCsf-163" target="mX_RafrJ3beVsuIxFCsf-1" edge="1">
          <mxGeometry width="50" height="50" relative="1" as="geometry">
            <mxPoint x="590" y="220" as="sourcePoint" />
            <mxPoint x="640" y="170" as="targetPoint" />
          </mxGeometry>
        </mxCell>
        <mxCell id="mX_RafrJ3beVsuIxFCsf-170" value="1" style="edgeLabel;html=1;align=center;verticalAlign=middle;resizable=0;points=[];" parent="mX_RafrJ3beVsuIxFCsf-169" vertex="1" connectable="0">
          <mxGeometry x="0.6836" y="-3" relative="1" as="geometry">
            <mxPoint x="-9" y="-6" as="offset" />
          </mxGeometry>
        </mxCell>
        <mxCell id="mX_RafrJ3beVsuIxFCsf-171" value="1" style="edgeLabel;html=1;align=center;verticalAlign=middle;resizable=0;points=[];" parent="mX_RafrJ3beVsuIxFCsf-169" vertex="1" connectable="0">
          <mxGeometry x="-0.5925" y="-5" relative="1" as="geometry">
            <mxPoint x="-10" y="-7" as="offset" />
          </mxGeometry>
        </mxCell>
        <mxCell id="mX_RafrJ3beVsuIxFCsf-172" value="ISKONTO" style="swimlane;fontStyle=2;align=center;verticalAlign=top;childLayout=stackLayout;horizontal=1;startSize=26;horizontalStack=0;resizeParent=1;resizeLast=0;collapsible=1;marginBottom=0;rounded=0;shadow=0;strokeWidth=1;" parent="1" vertex="1">
          <mxGeometry x="1440" y="355" width="160" height="190" as="geometry">
            <mxRectangle x="230" y="140" width="160" height="26" as="alternateBounds" />
          </mxGeometry>
        </mxCell>
        <mxCell id="mX_RafrJ3beVsuIxFCsf-173" value="- iskonto_id" style="text;align=left;verticalAlign=top;spacingLeft=4;spacingRight=4;overflow=hidden;rotatable=0;points=[[0,0.5],[1,0.5]];portConstraint=eastwest;" parent="mX_RafrJ3beVsuIxFCsf-172" vertex="1">
          <mxGeometry y="26" width="160" height="26" as="geometry" />
        </mxCell>
        <mxCell id="mX_RafrJ3beVsuIxFCsf-174" value="- drug_card_id" style="text;align=left;verticalAlign=top;spacingLeft=4;spacingRight=4;overflow=hidden;rotatable=0;points=[[0,0.5],[1,0.5]];portConstraint=eastwest;" parent="mX_RafrJ3beVsuIxFCsf-172" vertex="1">
          <mxGeometry y="52" width="160" height="26" as="geometry" />
        </mxCell>
        <mxCell id="mX_RafrJ3beVsuIxFCsf-175" value="- genel iskonto" style="text;align=left;verticalAlign=top;spacingLeft=4;spacingRight=4;overflow=hidden;rotatable=0;points=[[0,0.5],[1,0.5]];portConstraint=eastwest;" parent="mX_RafrJ3beVsuIxFCsf-172" vertex="1">
          <mxGeometry y="78" width="160" height="26" as="geometry" />
        </mxCell>
        <mxCell id="mX_RafrJ3beVsuIxFCsf-176" value="- kurum iskonto" style="text;align=left;verticalAlign=top;spacingLeft=4;spacingRight=4;overflow=hidden;rotatable=0;points=[[0,0.5],[1,0.5]];portConstraint=eastwest;" parent="mX_RafrJ3beVsuIxFCsf-172" vertex="1">
          <mxGeometry y="104" width="160" height="26" as="geometry" />
        </mxCell>
        <mxCell id="mX_RafrJ3beVsuIxFCsf-177" value="" style="line;html=1;strokeWidth=1;align=left;verticalAlign=middle;spacingTop=-1;spacingLeft=3;spacingRight=3;rotatable=0;labelPosition=right;points=[];portConstraint=eastwest;" parent="mX_RafrJ3beVsuIxFCsf-172" vertex="1">
          <mxGeometry y="130" width="160" height="8" as="geometry" />
        </mxCell>
        <mxCell id="mX_RafrJ3beVsuIxFCsf-178" value="- - -" style="text;align=left;verticalAlign=top;spacingLeft=4;spacingRight=4;overflow=hidden;rotatable=0;points=[[0,0.5],[1,0.5]];portConstraint=eastwest;" parent="mX_RafrJ3beVsuIxFCsf-172" vertex="1">
          <mxGeometry y="138" width="160" height="26" as="geometry" />
        </mxCell>
        <mxCell id="mX_RafrJ3beVsuIxFCsf-179" value="" style="endArrow=classic;html=1;entryX=0;entryY=0.5;entryDx=0;entryDy=0;exitX=0.997;exitY=-0.115;exitDx=0;exitDy=0;exitPerimeter=0;" parent="1" source="mX_RafrJ3beVsuIxFCsf-148" target="mX_RafrJ3beVsuIxFCsf-174" edge="1">
          <mxGeometry width="50" height="50" relative="1" as="geometry">
            <mxPoint x="920" y="340" as="sourcePoint" />
            <mxPoint x="970" y="290" as="targetPoint" />
          </mxGeometry>
        </mxCell>
        <mxCell id="mX_RafrJ3beVsuIxFCsf-180" value="DEPOT" style="swimlane;fontStyle=2;align=center;verticalAlign=top;childLayout=stackLayout;horizontal=1;startSize=26;horizontalStack=0;resizeParent=1;resizeLast=0;collapsible=1;marginBottom=0;rounded=0;shadow=0;strokeWidth=1;" parent="1" vertex="1">
          <mxGeometry x="840" y="535" width="160" height="430" as="geometry">
            <mxRectangle x="230" y="140" width="160" height="26" as="alternateBounds" />
          </mxGeometry>
        </mxCell>
        <mxCell id="mX_RafrJ3beVsuIxFCsf-181" value="- depot_id" style="text;align=left;verticalAlign=top;spacingLeft=4;spacingRight=4;overflow=hidden;rotatable=0;points=[[0,0.5],[1,0.5]];portConstraint=eastwest;" parent="mX_RafrJ3beVsuIxFCsf-180" vertex="1">
          <mxGeometry y="26" width="160" height="26" as="geometry" />
        </mxCell>
        <mxCell id="mX_RafrJ3beVsuIxFCsf-182" value="- drug card id" style="text;align=left;verticalAlign=top;spacingLeft=4;spacingRight=4;overflow=hidden;rotatable=0;points=[[0,0.5],[1,0.5]];portConstraint=eastwest;" parent="mX_RafrJ3beVsuIxFCsf-180" vertex="1">
          <mxGeometry y="52" width="160" height="26" as="geometry" />
        </mxCell>
        <mxCell id="mX_RafrJ3beVsuIxFCsf-183" value="- exxpiration date" style="text;align=left;verticalAlign=top;spacingLeft=4;spacingRight=4;overflow=hidden;rotatable=0;points=[[0,0.5],[1,0.5]];portConstraint=eastwest;" parent="mX_RafrJ3beVsuIxFCsf-180" vertex="1">
          <mxGeometry y="78" width="160" height="26" as="geometry" />
        </mxCell>
        <mxCell id="mX_RafrJ3beVsuIxFCsf-184" value="- its no" style="text;align=left;verticalAlign=top;spacingLeft=4;spacingRight=4;overflow=hidden;rotatable=0;points=[[0,0.5],[1,0.5]];portConstraint=eastwest;" parent="mX_RafrJ3beVsuIxFCsf-180" vertex="1">
          <mxGeometry y="104" width="160" height="26" as="geometry" />
        </mxCell>
        <mxCell id="mX_RafrJ3beVsuIxFCsf-185" value="- customer order id" style="text;align=left;verticalAlign=top;spacingLeft=4;spacingRight=4;overflow=hidden;rotatable=0;points=[[0,0.5],[1,0.5]];portConstraint=eastwest;" parent="mX_RafrJ3beVsuIxFCsf-180" vertex="1">
          <mxGeometry y="130" width="160" height="26" as="geometry" />
        </mxCell>
        <mxCell id="mX_RafrJ3beVsuIxFCsf-186" value="- supplier order id" style="text;align=left;verticalAlign=top;spacingLeft=4;spacingRight=4;overflow=hidden;rotatable=0;points=[[0,0.5],[1,0.5]];portConstraint=eastwest;rounded=0;shadow=0;html=0;" parent="mX_RafrJ3beVsuIxFCsf-180" vertex="1">
          <mxGeometry y="156" width="160" height="26" as="geometry" />
        </mxCell>
        <mxCell id="mX_RafrJ3beVsuIxFCsf-187" value="-  status" style="text;align=left;verticalAlign=top;spacingLeft=4;spacingRight=4;overflow=hidden;rotatable=0;points=[[0,0.5],[1,0.5]];portConstraint=eastwest;rounded=0;shadow=0;html=0;" parent="mX_RafrJ3beVsuIxFCsf-180" vertex="1">
          <mxGeometry y="182" width="160" height="26" as="geometry" />
        </mxCell>
        <mxCell id="mX_RafrJ3beVsuIxFCsf-188" value="- partino" style="text;align=left;verticalAlign=top;spacingLeft=4;spacingRight=4;overflow=hidden;rotatable=0;points=[[0,0.5],[1,0.5]];portConstraint=eastwest;rounded=0;shadow=0;html=0;" parent="mX_RafrJ3beVsuIxFCsf-180" vertex="1">
          <mxGeometry y="208" width="160" height="26" as="geometry" />
        </mxCell>
        <mxCell id="mX_RafrJ3beVsuIxFCsf-189" value="- position" style="text;align=left;verticalAlign=top;spacingLeft=4;spacingRight=4;overflow=hidden;rotatable=0;points=[[0,0.5],[1,0.5]];portConstraint=eastwest;rounded=0;shadow=0;html=0;" parent="mX_RafrJ3beVsuIxFCsf-180" vertex="1">
          <mxGeometry y="234" width="160" height="26" as="geometry" />
        </mxCell>
        <mxCell id="mX_RafrJ3beVsuIxFCsf-190" value="- admition date" style="text;align=left;verticalAlign=top;spacingLeft=4;spacingRight=4;overflow=hidden;rotatable=0;points=[[0,0.5],[1,0.5]];portConstraint=eastwest;rounded=0;shadow=0;html=0;" parent="mX_RafrJ3beVsuIxFCsf-180" vertex="1">
          <mxGeometry y="260" width="160" height="26" as="geometry" />
        </mxCell>
        <mxCell id="mX_RafrJ3beVsuIxFCsf-191" value="- sending date" style="text;align=left;verticalAlign=top;spacingLeft=4;spacingRight=4;overflow=hidden;rotatable=0;points=[[0,0.5],[1,0.5]];portConstraint=eastwest;rounded=0;shadow=0;html=0;" parent="mX_RafrJ3beVsuIxFCsf-180" vertex="1">
          <mxGeometry y="286" width="160" height="26" as="geometry" />
        </mxCell>
        <mxCell id="mX_RafrJ3beVsuIxFCsf-192" value="- drug_barcode" style="text;align=left;verticalAlign=top;spacingLeft=4;spacingRight=4;overflow=hidden;rotatable=0;points=[[0,0.5],[1,0.5]];portConstraint=eastwest;rounded=0;shadow=0;html=0;" parent="mX_RafrJ3beVsuIxFCsf-180" vertex="1">
          <mxGeometry y="312" width="160" height="26" as="geometry" />
        </mxCell>
        <mxCell id="mX_RafrJ3beVsuIxFCsf-193" value="- production place" style="text;align=left;verticalAlign=top;spacingLeft=4;spacingRight=4;overflow=hidden;rotatable=0;points=[[0,0.5],[1,0.5]];portConstraint=eastwest;rounded=0;shadow=0;html=0;" parent="mX_RafrJ3beVsuIxFCsf-180" vertex="1">
          <mxGeometry y="338" width="160" height="26" as="geometry" />
        </mxCell>
        <mxCell id="mX_RafrJ3beVsuIxFCsf-194" value="- note" style="text;align=left;verticalAlign=top;spacingLeft=4;spacingRight=4;overflow=hidden;rotatable=0;points=[[0,0.5],[1,0.5]];portConstraint=eastwest;rounded=0;shadow=0;html=0;" parent="mX_RafrJ3beVsuIxFCsf-180" vertex="1">
          <mxGeometry y="364" width="160" height="26" as="geometry" />
        </mxCell>
        <mxCell id="mX_RafrJ3beVsuIxFCsf-195" value="" style="line;html=1;strokeWidth=1;align=left;verticalAlign=middle;spacingTop=-1;spacingLeft=3;spacingRight=3;rotatable=0;labelPosition=right;points=[];portConstraint=eastwest;" parent="mX_RafrJ3beVsuIxFCsf-180" vertex="1">
          <mxGeometry y="390" width="160" height="8" as="geometry" />
        </mxCell>
        <mxCell id="mX_RafrJ3beVsuIxFCsf-196" value="- - -" style="text;align=left;verticalAlign=top;spacingLeft=4;spacingRight=4;overflow=hidden;rotatable=0;points=[[0,0.5],[1,0.5]];portConstraint=eastwest;" parent="mX_RafrJ3beVsuIxFCsf-180" vertex="1">
          <mxGeometry y="398" width="160" height="10" as="geometry" />
        </mxCell>
        <mxCell id="mX_RafrJ3beVsuIxFCsf-197" value="" style="endArrow=classic;html=1;entryX=0.5;entryY=1;entryDx=0;entryDy=0;exitX=0;exitY=0.5;exitDx=0;exitDy=0;" parent="1" source="mX_RafrJ3beVsuIxFCsf-88" target="mX_RafrJ3beVsuIxFCsf-180" edge="1">
          <mxGeometry width="50" height="50" relative="1" as="geometry">
            <mxPoint x="1250" y="970" as="sourcePoint" />
            <mxPoint x="1300" y="920" as="targetPoint" />
          </mxGeometry>
        </mxCell>
        <mxCell id="mX_RafrJ3beVsuIxFCsf-198" value="" style="endArrow=classic;html=1;entryX=1;entryY=0.5;entryDx=0;entryDy=0;exitX=0;exitY=0.5;exitDx=0;exitDy=0;" parent="1" source="mX_RafrJ3beVsuIxFCsf-151" target="mX_RafrJ3beVsuIxFCsf-182" edge="1">
          <mxGeometry width="50" height="50" relative="1" as="geometry">
            <mxPoint x="1280" y="500" as="sourcePoint" />
            <mxPoint x="1300" y="690" as="targetPoint" />
          </mxGeometry>
        </mxCell>
        <mxCell id="mX_RafrJ3beVsuIxFCsf-199" value="" style="endArrow=classic;html=1;entryX=0;entryY=0.5;entryDx=0;entryDy=0;exitX=0.375;exitY=1.385;exitDx=0;exitDy=0;exitPerimeter=0;" parent="1" source="mX_RafrJ3beVsuIxFCsf-53" target="mX_RafrJ3beVsuIxFCsf-191" edge="1">
          <mxGeometry width="50" height="50" relative="1" as="geometry">
            <mxPoint x="800" y="265" as="sourcePoint" />
            <mxPoint x="980" y="133.5" as="targetPoint" />
          </mxGeometry>
        </mxCell>
        <mxCell id="mX_RafrJ3beVsuIxFCsf-200" value="1..*" style="edgeLabel;html=1;align=center;verticalAlign=middle;resizable=0;points=[];" parent="mX_RafrJ3beVsuIxFCsf-199" vertex="1" connectable="0">
          <mxGeometry x="0.9013" y="-1" relative="1" as="geometry">
            <mxPoint x="-9.67" y="-18.51" as="offset" />
          </mxGeometry>
        </mxCell>
        <mxCell id="mX_RafrJ3beVsuIxFCsf-201" value="1" style="edgeLabel;html=1;align=center;verticalAlign=middle;resizable=0;points=[];" parent="1" vertex="1" connectable="0">
          <mxGeometry x="1261.8894193318233" y="340.4812243760781" as="geometry" />
        </mxCell>
        <mxCell id="mX_RafrJ3beVsuIxFCsf-202" value="1" style="edgeLabel;html=1;align=center;verticalAlign=middle;resizable=0;points=[];" parent="1" vertex="1" connectable="0">
          <mxGeometry x="1059.9994193318234" y="450.0012243760781" as="geometry">
            <mxPoint x="203" y="-119" as="offset" />
          </mxGeometry>
        </mxCell>
        <mxCell id="mX_RafrJ3beVsuIxFCsf-203" value="&lt;span style=&quot;color: rgb(0, 0, 0); font-family: helvetica; font-size: 11px; font-style: normal; font-weight: 400; letter-spacing: normal; text-align: center; text-indent: 0px; text-transform: none; word-spacing: 0px; background-color: rgb(255, 255, 255); display: inline; float: none;&quot;&gt;1&lt;/span&gt;" style="text;whiteSpace=wrap;html=1;" parent="1" vertex="1">
          <mxGeometry x="1440" y="430" width="30" height="30" as="geometry" />
        </mxCell>
        <mxCell id="mX_RafrJ3beVsuIxFCsf-204" value="0..1" style="edgeLabel;html=1;align=center;verticalAlign=middle;resizable=0;points=[];" parent="1" vertex="1" connectable="0">
          <mxGeometry x="480.00433287267276" y="429.99965462083543" as="geometry">
            <mxPoint x="217" y="241" as="offset" />
          </mxGeometry>
        </mxCell>
        <mxCell id="mX_RafrJ3beVsuIxFCsf-205" value="&lt;div&gt;1..*&lt;/div&gt;" style="edgeLabel;html=1;align=center;verticalAlign=middle;resizable=0;points=[];" parent="1" vertex="1" connectable="0">
          <mxGeometry x="1198.6893734816404" y="669.5072955748265" as="geometry">
            <mxPoint x="-142" y="-108" as="offset" />
          </mxGeometry>
        </mxCell>
        <mxCell id="mX_RafrJ3beVsuIxFCsf-206" value="1" style="edgeLabel;html=1;align=center;verticalAlign=middle;resizable=0;points=[];" parent="1" vertex="1" connectable="0">
          <mxGeometry x="1146.899592204068" y="381.5021695749249" as="geometry">
            <mxPoint x="-56" y="319" as="offset" />
          </mxGeometry>
        </mxCell>
        <mxCell id="mX_RafrJ3beVsuIxFCsf-207" value="1..*" style="edgeLabel;html=1;align=center;verticalAlign=middle;resizable=0;points=[];" parent="1" vertex="1" connectable="0">
          <mxGeometry x="1259.1070714967477" y="112.41866574400831" as="geometry">
            <mxPoint x="131" y="176" as="offset" />
          </mxGeometry>
        </mxCell>
        <mxCell id="mX_RafrJ3beVsuIxFCsf-208" value="SUPPLIER_SUPERVISOR_ID" style="swimlane;fontStyle=2;align=center;verticalAlign=top;childLayout=stackLayout;horizontal=1;startSize=26;horizontalStack=0;resizeParent=1;resizeLast=0;collapsible=1;marginBottom=0;rounded=0;shadow=0;strokeWidth=1;" parent="1" vertex="1">
          <mxGeometry x="50" y="990" width="174" height="270" as="geometry">
            <mxRectangle x="230" y="140" width="160" height="26" as="alternateBounds" />
          </mxGeometry>
        </mxCell>
        <mxCell id="mX_RafrJ3beVsuIxFCsf-209" value="- supplier_supervisor_id" style="text;align=left;verticalAlign=top;spacingLeft=4;spacingRight=4;overflow=hidden;rotatable=0;points=[[0,0.5],[1,0.5]];portConstraint=eastwest;" parent="mX_RafrJ3beVsuIxFCsf-208" vertex="1">
          <mxGeometry y="26" width="174" height="26" as="geometry" />
        </mxCell>
        <mxCell id="mX_RafrJ3beVsuIxFCsf-210" value="- supervisor_name" style="text;align=left;verticalAlign=top;spacingLeft=4;spacingRight=4;overflow=hidden;rotatable=0;points=[[0,0.5],[1,0.5]];portConstraint=eastwest;" parent="mX_RafrJ3beVsuIxFCsf-208" vertex="1">
          <mxGeometry y="52" width="174" height="26" as="geometry" />
        </mxCell>
        <mxCell id="mX_RafrJ3beVsuIxFCsf-211" value="- supervisor_surname" style="text;align=left;verticalAlign=top;spacingLeft=4;spacingRight=4;overflow=hidden;rotatable=0;points=[[0,0.5],[1,0.5]];portConstraint=eastwest;" parent="mX_RafrJ3beVsuIxFCsf-208" vertex="1">
          <mxGeometry y="78" width="174" height="26" as="geometry" />
        </mxCell>
        <mxCell id="mX_RafrJ3beVsuIxFCsf-212" value="- supervisor_email" style="text;align=left;verticalAlign=top;spacingLeft=4;spacingRight=4;overflow=hidden;rotatable=0;points=[[0,0.5],[1,0.5]];portConstraint=eastwest;" parent="mX_RafrJ3beVsuIxFCsf-208" vertex="1">
          <mxGeometry y="104" width="174" height="26" as="geometry" />
        </mxCell>
        <mxCell id="mX_RafrJ3beVsuIxFCsf-213" value="- supervisor_phone_number" style="text;align=left;verticalAlign=top;spacingLeft=4;spacingRight=4;overflow=hidden;rotatable=0;points=[[0,0.5],[1,0.5]];portConstraint=eastwest;" parent="mX_RafrJ3beVsuIxFCsf-208" vertex="1">
          <mxGeometry y="130" width="174" height="26" as="geometry" />
        </mxCell>
        <mxCell id="mX_RafrJ3beVsuIxFCsf-214" value="- job_title&#xa;" style="text;align=left;verticalAlign=top;spacingLeft=4;spacingRight=4;overflow=hidden;rotatable=0;points=[[0,0.5],[1,0.5]];portConstraint=eastwest;rounded=0;shadow=0;html=0;" parent="mX_RafrJ3beVsuIxFCsf-208" vertex="1">
          <mxGeometry y="156" width="174" height="26" as="geometry" />
        </mxCell>
        <mxCell id="mX_RafrJ3beVsuIxFCsf-215" value="- supplier_id" style="text;align=left;verticalAlign=top;spacingLeft=4;spacingRight=4;overflow=hidden;rotatable=0;points=[[0,0.5],[1,0.5]];portConstraint=eastwest;rounded=0;shadow=0;html=0;" parent="mX_RafrJ3beVsuIxFCsf-208" vertex="1">
          <mxGeometry y="182" width="174" height="26" as="geometry" />
        </mxCell>
        <mxCell id="mX_RafrJ3beVsuIxFCsf-216" value="- supervisor_status" style="text;align=left;verticalAlign=top;spacingLeft=4;spacingRight=4;overflow=hidden;rotatable=0;points=[[0,0.5],[1,0.5]];portConstraint=eastwest;rounded=0;shadow=0;html=0;" parent="mX_RafrJ3beVsuIxFCsf-208" vertex="1">
          <mxGeometry y="208" width="174" height="26" as="geometry" />
        </mxCell>
        <mxCell id="mX_RafrJ3beVsuIxFCsf-217" value="" style="line;html=1;strokeWidth=1;align=left;verticalAlign=middle;spacingTop=-1;spacingLeft=3;spacingRight=3;rotatable=0;labelPosition=right;points=[];portConstraint=eastwest;" parent="mX_RafrJ3beVsuIxFCsf-208" vertex="1">
          <mxGeometry y="234" width="174" height="8" as="geometry" />
        </mxCell>
        <mxCell id="mX_RafrJ3beVsuIxFCsf-218" value="- - -" style="text;align=left;verticalAlign=top;spacingLeft=4;spacingRight=4;overflow=hidden;rotatable=0;points=[[0,0.5],[1,0.5]];portConstraint=eastwest;" parent="mX_RafrJ3beVsuIxFCsf-208" vertex="1">
          <mxGeometry y="242" width="174" height="26" as="geometry" />
        </mxCell>
        <mxCell id="mX_RafrJ3beVsuIxFCsf-219" value="" style="endArrow=classic;html=1;exitX=1;exitY=0.5;exitDx=0;exitDy=0;entryX=0;entryY=0.5;entryDx=0;entryDy=0;" parent="1" source="mX_RafrJ3beVsuIxFCsf-215" target="mX_RafrJ3beVsuIxFCsf-121" edge="1">
          <mxGeometry width="50" height="50" relative="1" as="geometry">
            <mxPoint x="530" y="1080" as="sourcePoint" />
            <mxPoint x="580" y="1030" as="targetPoint" />
          </mxGeometry>
        </mxCell>
        <mxCell id="mX_RafrJ3beVsuIxFCsf-220" value="STOCK_SUPPLY_ORDER" style="swimlane;fontStyle=2;align=center;verticalAlign=top;childLayout=stackLayout;horizontal=1;startSize=26;horizontalStack=0;resizeParent=1;resizeLast=0;collapsible=1;marginBottom=0;rounded=0;shadow=0;strokeWidth=1;" parent="1" vertex="1">
          <mxGeometry x="729.9999999999999" y="1140" width="210" height="540" as="geometry">
            <mxRectangle x="230" y="140" width="160" height="26" as="alternateBounds" />
          </mxGeometry>
        </mxCell>
        <mxCell id="mX_RafrJ3beVsuIxFCsf-221" value="- stock_supplier_order_id" style="text;align=left;verticalAlign=top;spacingLeft=4;spacingRight=4;overflow=hidden;rotatable=0;points=[[0,0.5],[1,0.5]];portConstraint=eastwest;" parent="mX_RafrJ3beVsuIxFCsf-220" vertex="1">
          <mxGeometry y="26" width="210" height="26" as="geometry" />
        </mxCell>
        <mxCell id="mX_RafrJ3beVsuIxFCsf-222" value="-supplier_id" style="text;align=left;verticalAlign=top;spacingLeft=4;spacingRight=4;overflow=hidden;rotatable=0;points=[[0,0.5],[1,0.5]];portConstraint=eastwest;" parent="mX_RafrJ3beVsuIxFCsf-220" vertex="1">
          <mxGeometry y="52" width="210" height="26" as="geometry" />
        </mxCell>
        <mxCell id="mX_RafrJ3beVsuIxFCsf-223" value="-createdAt" style="text;align=left;verticalAlign=top;spacingLeft=4;spacingRight=4;overflow=hidden;rotatable=0;points=[[0,0.5],[1,0.5]];portConstraint=eastwest;" parent="mX_RafrJ3beVsuIxFCsf-220" vertex="1">
          <mxGeometry y="78" width="210" height="26" as="geometry" />
        </mxCell>
        <mxCell id="mX_RafrJ3beVsuIxFCsf-224" value="-quantity&#xa;" style="text;align=left;verticalAlign=top;spacingLeft=4;spacingRight=4;overflow=hidden;rotatable=0;points=[[0,0.5],[1,0.5]];portConstraint=eastwest;" parent="mX_RafrJ3beVsuIxFCsf-220" vertex="1">
          <mxGeometry y="104" width="210" height="26" as="geometry" />
        </mxCell>
        <mxCell id="mX_RafrJ3beVsuIxFCsf-225" value="-unit_price" style="text;align=left;verticalAlign=top;spacingLeft=4;spacingRight=4;overflow=hidden;rotatable=0;points=[[0,0.5],[1,0.5]];portConstraint=eastwest;" parent="mX_RafrJ3beVsuIxFCsf-220" vertex="1">
          <mxGeometry y="130" width="210" height="26" as="geometry" />
        </mxCell>
        <mxCell id="mX_RafrJ3beVsuIxFCsf-226" value="-surplus_percentage" style="text;align=left;verticalAlign=top;spacingLeft=4;spacingRight=4;overflow=hidden;rotatable=0;points=[[0,0.5],[1,0.5]];portConstraint=eastwest;" parent="mX_RafrJ3beVsuIxFCsf-220" vertex="1">
          <mxGeometry y="156" width="210" height="26" as="geometry" />
        </mxCell>
        <mxCell id="mX_RafrJ3beVsuIxFCsf-227" value="- total_price" style="text;align=left;verticalAlign=top;spacingLeft=4;spacingRight=4;overflow=hidden;rotatable=0;points=[[0,0.5],[1,0.5]];portConstraint=eastwest;" parent="mX_RafrJ3beVsuIxFCsf-220" vertex="1">
          <mxGeometry y="182" width="210" height="26" as="geometry" />
        </mxCell>
        <mxCell id="mX_RafrJ3beVsuIxFCsf-228" value="- kurum_iskonto" style="text;align=left;verticalAlign=top;spacingLeft=4;spacingRight=4;overflow=hidden;rotatable=0;points=[[0,0.5],[1,0.5]];portConstraint=eastwest;" parent="mX_RafrJ3beVsuIxFCsf-220" vertex="1">
          <mxGeometry y="208" width="210" height="26" as="geometry" />
        </mxCell>
        <mxCell id="mX_RafrJ3beVsuIxFCsf-229" value="- genel_iskonto" style="text;align=left;verticalAlign=top;spacingLeft=4;spacingRight=4;overflow=hidden;rotatable=0;points=[[0,0.5],[1,0.5]];portConstraint=eastwest;" parent="mX_RafrJ3beVsuIxFCsf-220" vertex="1">
          <mxGeometry y="234" width="210" height="26" as="geometry" />
        </mxCell>
        <mxCell id="mX_RafrJ3beVsuIxFCsf-230" value="- kdv_tax" style="text;align=left;verticalAlign=top;spacingLeft=4;spacingRight=4;overflow=hidden;rotatable=0;points=[[0,0.5],[1,0.5]];portConstraint=eastwest;" parent="mX_RafrJ3beVsuIxFCsf-220" vertex="1">
          <mxGeometry y="260" width="210" height="26" as="geometry" />
        </mxCell>
        <mxCell id="mX_RafrJ3beVsuIxFCsf-231" value="- general_price" style="text;align=left;verticalAlign=top;spacingLeft=4;spacingRight=4;overflow=hidden;rotatable=0;points=[[0,0.5],[1,0.5]];portConstraint=eastwest;" parent="mX_RafrJ3beVsuIxFCsf-220" vertex="1">
          <mxGeometry y="286" width="210" height="26" as="geometry" />
        </mxCell>
        <mxCell id="mX_RafrJ3beVsuIxFCsf-232" value="- iris_no" style="text;align=left;verticalAlign=top;spacingLeft=4;spacingRight=4;overflow=hidden;rotatable=0;points=[[0,0.5],[1,0.5]];portConstraint=eastwest;" parent="mX_RafrJ3beVsuIxFCsf-220" vertex="1">
          <mxGeometry y="312" width="210" height="26" as="geometry" />
        </mxCell>
        <mxCell id="mX_RafrJ3beVsuIxFCsf-233" value="- fat_no" style="text;align=left;verticalAlign=top;spacingLeft=4;spacingRight=4;overflow=hidden;rotatable=0;points=[[0,0.5],[1,0.5]];portConstraint=eastwest;" parent="mX_RafrJ3beVsuIxFCsf-220" vertex="1">
          <mxGeometry y="338" width="210" height="26" as="geometry" />
        </mxCell>
        <mxCell id="mX_RafrJ3beVsuIxFCsf-234" value="-exp_date" style="text;align=left;verticalAlign=top;spacingLeft=4;spacingRight=4;overflow=hidden;rotatable=0;points=[[0,0.5],[1,0.5]];portConstraint=eastwest;" parent="mX_RafrJ3beVsuIxFCsf-220" vertex="1">
          <mxGeometry y="364" width="210" height="26" as="geometry" />
        </mxCell>
        <mxCell id="mX_RafrJ3beVsuIxFCsf-235" value="- status" style="text;align=left;verticalAlign=top;spacingLeft=4;spacingRight=4;overflow=hidden;rotatable=0;points=[[0,0.5],[1,0.5]];portConstraint=eastwest;" parent="mX_RafrJ3beVsuIxFCsf-220" vertex="1">
          <mxGeometry y="390" width="210" height="26" as="geometry" />
        </mxCell>
        <mxCell id="T5wTIGkzyn7Ef-j0K9qf-2" value="-drug_card_id" style="text;html=1;align=left;verticalAlign=middle;resizable=0;points=[];autosize=1;" vertex="1" parent="mX_RafrJ3beVsuIxFCsf-220">
          <mxGeometry y="416" width="210" height="20" as="geometry" />
        </mxCell>
        <mxCell id="T5wTIGkzyn7Ef-j0K9qf-7" value="-stock_order_drug_id" style="text;html=1;align=left;verticalAlign=middle;resizable=0;points=[];autosize=1;" vertex="1" parent="mX_RafrJ3beVsuIxFCsf-220">
          <mxGeometry y="436" width="210" height="20" as="geometry" />
        </mxCell>
        <mxCell id="mX_RafrJ3beVsuIxFCsf-236" value="" style="line;html=1;strokeWidth=1;align=left;verticalAlign=middle;spacingTop=-1;spacingLeft=3;spacingRight=3;rotatable=0;labelPosition=right;points=[];portConstraint=eastwest;" parent="mX_RafrJ3beVsuIxFCsf-220" vertex="1">
          <mxGeometry y="456" width="210" height="8" as="geometry" />
        </mxCell>
        <mxCell id="mX_RafrJ3beVsuIxFCsf-237" value="- - -" style="text;align=left;verticalAlign=top;spacingLeft=4;spacingRight=4;overflow=hidden;rotatable=0;points=[[0,0.5],[1,0.5]];portConstraint=eastwest;" parent="mX_RafrJ3beVsuIxFCsf-220" vertex="1">
          <mxGeometry y="464" width="210" height="56" as="geometry" />
        </mxCell>
        <mxCell id="mX_RafrJ3beVsuIxFCsf-238" value="STOCK_ORDER_DRUG" style="swimlane;fontStyle=2;align=center;verticalAlign=top;childLayout=stackLayout;horizontal=1;startSize=26;horizontalStack=0;resizeParent=1;resizeLast=0;collapsible=1;marginBottom=0;rounded=0;shadow=0;strokeWidth=1;" parent="1" vertex="1">
          <mxGeometry x="1410" y="1310" width="200" height="254" as="geometry">
            <mxRectangle x="230" y="140" width="160" height="26" as="alternateBounds" />
          </mxGeometry>
        </mxCell>
        <mxCell id="mX_RafrJ3beVsuIxFCsf-239" value="- stock_order_drug_id" style="text;align=left;verticalAlign=top;spacingLeft=4;spacingRight=4;overflow=hidden;rotatable=0;points=[[0,0.5],[1,0.5]];portConstraint=eastwest;" parent="mX_RafrJ3beVsuIxFCsf-238" vertex="1">
          <mxGeometry y="26" width="200" height="26" as="geometry" />
        </mxCell>
        <mxCell id="mX_RafrJ3beVsuIxFCsf-240" value="- total_quantity" style="text;align=left;verticalAlign=top;spacingLeft=4;spacingRight=4;overflow=hidden;rotatable=0;points=[[0,0.5],[1,0.5]];portConstraint=eastwest;" parent="mX_RafrJ3beVsuIxFCsf-238" vertex="1">
          <mxGeometry y="52" width="200" height="26" as="geometry" />
        </mxCell>
        <mxCell id="mX_RafrJ3beVsuIxFCsf-241" value="- incomplete_quantity" style="text;align=left;verticalAlign=top;spacingLeft=4;spacingRight=4;overflow=hidden;rotatable=0;points=[[0,0.5],[1,0.5]];portConstraint=eastwest;" parent="mX_RafrJ3beVsuIxFCsf-238" vertex="1">
          <mxGeometry y="78" width="200" height="26" as="geometry" />
        </mxCell>
        <mxCell id="mX_RafrJ3beVsuIxFCsf-242" value="- expration_date" style="text;align=left;verticalAlign=top;spacingLeft=4;spacingRight=4;overflow=hidden;rotatable=0;points=[[0,0.5],[1,0.5]];portConstraint=eastwest;" parent="mX_RafrJ3beVsuIxFCsf-238" vertex="1">
          <mxGeometry y="104" width="200" height="26" as="geometry" />
        </mxCell>
        <mxCell id="mX_RafrJ3beVsuIxFCsf-243" value="- drug_card_id" style="text;align=left;verticalAlign=top;spacingLeft=4;spacingRight=4;overflow=hidden;rotatable=0;points=[[0,0.5],[1,0.5]];portConstraint=eastwest;" parent="mX_RafrJ3beVsuIxFCsf-238" vertex="1">
          <mxGeometry y="130" width="200" height="26" as="geometry" />
        </mxCell>
        <mxCell id="mX_RafrJ3beVsuIxFCsf-244" value="-status" style="text;align=left;verticalAlign=top;spacingLeft=4;spacingRight=4;overflow=hidden;rotatable=0;points=[[0,0.5],[1,0.5]];portConstraint=eastwest;" parent="mX_RafrJ3beVsuIxFCsf-238" vertex="1">
          <mxGeometry y="156" width="200" height="26" as="geometry" />
        </mxCell>
        <mxCell id="mX_RafrJ3beVsuIxFCsf-245" value="" style="line;html=1;strokeWidth=1;align=left;verticalAlign=middle;spacingTop=-1;spacingLeft=3;spacingRight=3;rotatable=0;labelPosition=right;points=[];portConstraint=eastwest;" parent="mX_RafrJ3beVsuIxFCsf-238" vertex="1">
          <mxGeometry y="182" width="200" height="16" as="geometry" />
        </mxCell>
        <mxCell id="mX_RafrJ3beVsuIxFCsf-246" value="- - -" style="text;align=left;verticalAlign=top;spacingLeft=4;spacingRight=4;overflow=hidden;rotatable=0;points=[[0,0.5],[1,0.5]];portConstraint=eastwest;" parent="mX_RafrJ3beVsuIxFCsf-238" vertex="1">
          <mxGeometry y="198" width="200" height="30" as="geometry" />
        </mxCell>
        <mxCell id="mX_RafrJ3beVsuIxFCsf-247" value="1" style="text;html=1;align=center;verticalAlign=middle;resizable=0;points=[];autosize=1;" parent="1" vertex="1">
          <mxGeometry x="1000" y="340.48" width="20" height="20" as="geometry" />
        </mxCell>
        <mxCell id="mX_RafrJ3beVsuIxFCsf-248" value="1..*" style="text;html=1;align=center;verticalAlign=middle;resizable=0;points=[];autosize=1;" parent="1" vertex="1">
          <mxGeometry x="1198.69" y="910" width="30" height="20" as="geometry" />
        </mxCell>
        <mxCell id="mX_RafrJ3beVsuIxFCsf-249" style="edgeStyle=orthogonalEdgeStyle;rounded=0;orthogonalLoop=1;jettySize=auto;html=1;entryX=1;entryY=0.5;entryDx=0;entryDy=0;exitX=0;exitY=0.5;exitDx=0;exitDy=0;" parent="1" source="mX_RafrJ3beVsuIxFCsf-244" target="mX_RafrJ3beVsuIxFCsf-222" edge="1">
          <mxGeometry relative="1" as="geometry">
            <Array as="points">
              <mxPoint x="1410" y="1465" />
              <mxPoint x="1370" y="1465" />
              <mxPoint x="1370" y="1615" />
              <mxPoint x="980" y="1615" />
              <mxPoint x="980" y="1205" />
            </Array>
          </mxGeometry>
        </mxCell>
        <mxCell id="mX_RafrJ3beVsuIxFCsf-252" style="edgeStyle=orthogonalEdgeStyle;rounded=0;orthogonalLoop=1;jettySize=auto;html=1;entryX=0;entryY=0.5;entryDx=0;entryDy=0;exitX=0.25;exitY=1;exitDx=0;exitDy=0;" parent="1" source="mX_RafrJ3beVsuIxFCsf-120" target="mX_RafrJ3beVsuIxFCsf-222" edge="1">
          <mxGeometry relative="1" as="geometry">
            <mxPoint x="642.6499999999996" y="1367.5600000000004" as="sourcePoint" />
            <Array as="points">
              <mxPoint x="393" y="1420" />
              <mxPoint x="660" y="1420" />
              <mxPoint x="660" y="1205" />
            </Array>
          </mxGeometry>
        </mxCell>
        <mxCell id="mX_RafrJ3beVsuIxFCsf-253" value="1" style="text;html=1;align=center;verticalAlign=middle;resizable=0;points=[];autosize=1;" parent="1" vertex="1">
          <mxGeometry x="1370" y="1430" width="20" height="20" as="geometry" />
        </mxCell>
        <mxCell id="mX_RafrJ3beVsuIxFCsf-254" value="1" style="text;html=1;align=center;verticalAlign=middle;resizable=0;points=[];autosize=1;" parent="1" vertex="1">
          <mxGeometry x="650" y="1390" width="20" height="20" as="geometry" />
        </mxCell>
        <mxCell id="mX_RafrJ3beVsuIxFCsf-255" value="1" style="text;html=1;align=center;verticalAlign=middle;resizable=0;points=[];autosize=1;" parent="1" vertex="1">
          <mxGeometry x="710" y="1800" width="20" height="20" as="geometry" />
        </mxCell>
        <mxCell id="mX_RafrJ3beVsuIxFCsf-256" value="1" style="text;html=1;align=center;verticalAlign=middle;resizable=0;points=[];autosize=1;" parent="1" vertex="1">
          <mxGeometry x="1240" y="410" width="20" height="20" as="geometry" />
        </mxCell>
        <mxCell id="mX_RafrJ3beVsuIxFCsf-257" value="" style="endArrow=classic;html=1;exitX=0.75;exitY=1;exitDx=0;exitDy=0;entryX=0.564;entryY=-0.005;entryDx=0;entryDy=0;entryPerimeter=0;" parent="1" source="mX_RafrJ3beVsuIxFCsf-57" target="mX_RafrJ3beVsuIxFCsf-87" edge="1">
          <mxGeometry width="50" height="50" relative="1" as="geometry">
            <mxPoint x="820" y="920" as="sourcePoint" />
            <mxPoint x="870" y="870" as="targetPoint" />
            <Array as="points">
              <mxPoint x="1140" y="630" />
            </Array>
          </mxGeometry>
        </mxCell>
        <mxCell id="T5wTIGkzyn7Ef-j0K9qf-4" value="1" style="text;html=1;align=center;verticalAlign=middle;resizable=0;points=[];autosize=1;" vertex="1" parent="1">
          <mxGeometry x="1260" y="560" width="20" height="20" as="geometry" />
        </mxCell>
        <mxCell id="T5wTIGkzyn7Ef-j0K9qf-5" value="1" style="text;html=1;align=center;verticalAlign=middle;resizable=0;points=[];autosize=1;" vertex="1" parent="1">
          <mxGeometry x="1280" y="910" width="20" height="20" as="geometry" />
        </mxCell>
        <mxCell id="T5wTIGkzyn7Ef-j0K9qf-8" value="1..*" style="text;html=1;align=center;verticalAlign=middle;resizable=0;points=[];autosize=1;" vertex="1" parent="1">
          <mxGeometry x="975" y="1180" width="30" height="20" as="geometry" />
        </mxCell>
        <mxCell id="T5wTIGkzyn7Ef-j0K9qf-9" value="1" style="text;html=1;align=center;verticalAlign=middle;resizable=0;points=[];autosize=1;" vertex="1" parent="1">
          <mxGeometry x="350" y="1400" width="20" height="20" as="geometry" />
        </mxCell>
        <mxCell id="T5wTIGkzyn7Ef-j0K9qf-10" value="1..*" style="text;html=1;align=center;verticalAlign=middle;resizable=0;points=[];autosize=1;" vertex="1" parent="1">
          <mxGeometry x="675" y="1170" width="30" height="20" as="geometry" />
        </mxCell>
      </root>
    </mxGraphModel>
  </diagram>
</mxfile>
